<svg id="svg" version="1.1" xmlns="http://www.w3.org/2000/svg" xmlns:xlink="http://www.w3.org/1999/xlink" width="400" height="400" viewBox="0, 0, 400,400"><g id="svgg"><path id="path0" d="M68.400 17.945 C 67.410 18.097,66.407 18.342,66.171 18.490 C 65.935 18.638,65.002 18.803,64.098 18.856 C 62.835 18.931,62.394 19.144,62.200 19.777 C 61.397 22.383,61.122 23.716,60.799 26.566 C 60.524 28.998,60.181 30.111,59.320 31.366 C 58.704 32.265,57.860 33.669,57.444 34.486 C 57.029 35.304,56.129 36.496,55.444 37.135 C 54.760 37.774,53.840 38.800,53.400 39.414 C 52.171 41.131,51.575 41.632,51.106 41.342 C 50.863 41.192,50.792 41.263,50.942 41.506 C 51.237 41.983,49.397 43.600,48.559 43.600 C 48.264 43.600,48.122 43.852,48.241 44.164 C 48.369 44.497,48.138 44.829,47.676 44.976 C 46.904 45.221,44.490 47.321,44.312 47.902 C 44.123 48.519,43.004 49.600,42.554 49.600 C 42.296 49.600,41.978 49.879,41.847 50.221 C 41.688 50.637,41.772 50.750,42.105 50.562 C 42.377 50.408,42.154 50.714,41.609 51.241 C 41.065 51.769,40.525 52.198,40.409 52.195 C 40.196 52.191,38.528 53.954,37.377 55.400 C 37.027 55.840,36.879 55.930,37.047 55.600 C 37.311 55.083,37.259 55.076,36.677 55.549 C 36.305 55.851,36.000 56.342,36.000 56.640 C 36.000 56.938,35.552 57.475,35.003 57.835 C 34.455 58.194,34.115 58.662,34.247 58.876 C 34.379 59.090,34.030 59.745,33.472 60.333 C 30.422 63.539,28.727 73.048,29.931 80.200 C 30.792 85.310,32.001 95.766,32.001 98.093 C 32.000 100.521,32.692 105.658,33.200 107.000 C 33.594 108.041,34.400 113.277,34.400 114.799 C 34.400 115.451,34.655 117.382,34.967 119.092 C 35.279 120.801,35.740 123.910,35.991 126.000 C 36.242 128.090,36.783 131.240,37.193 133.000 C 37.603 134.760,38.237 137.640,38.603 139.400 C 39.400 143.230,40.121 145.505,41.407 148.238 C 41.934 149.359,42.746 151.294,43.211 152.538 C 43.677 153.782,44.244 154.800,44.472 154.800 C 44.699 154.800,44.782 155.070,44.655 155.400 C 44.529 155.730,44.606 156.000,44.827 156.000 C 45.048 156.000,45.828 157.272,46.559 158.826 C 47.290 160.381,48.048 161.614,48.244 161.566 C 48.440 161.519,49.108 162.452,49.728 163.640 C 50.348 164.828,51.231 166.001,51.688 166.246 C 52.319 166.584,52.385 166.747,51.961 166.915 C 51.538 167.082,51.564 167.145,52.067 167.168 C 52.434 167.186,53.113 167.812,53.575 168.560 C 54.038 169.308,54.684 170.023,55.012 170.149 C 55.339 170.275,55.561 170.608,55.504 170.889 C 55.447 171.170,55.638 171.351,55.930 171.290 C 56.221 171.230,56.345 171.366,56.204 171.593 C 56.064 171.820,56.276 172.120,56.675 172.259 C 57.074 172.399,58.054 173.208,58.854 174.057 C 59.653 174.905,60.495 175.600,60.725 175.600 C 60.954 175.600,61.515 176.074,61.971 176.654 C 62.427 177.234,62.800 177.578,62.800 177.418 C 62.800 177.259,63.339 177.582,63.998 178.137 C 64.657 178.691,65.559 179.260,66.004 179.401 C 66.448 179.542,66.737 179.780,66.645 179.929 C 66.553 180.078,67.045 180.240,67.739 180.289 C 69.549 180.418,73.600 181.684,73.600 182.122 C 73.600 182.344,75.808 182.391,79.100 182.239 C 86.494 181.898,86.521 181.895,87.152 181.287 C 87.455 180.994,87.959 180.852,88.272 180.972 C 88.585 181.093,88.754 181.050,88.648 180.878 C 88.542 180.705,89.567 180.133,90.927 179.607 C 92.287 179.080,93.850 178.354,94.400 177.994 C 94.950 177.634,96.617 176.949,98.105 176.471 C 99.593 175.993,102.383 174.724,104.305 173.651 C 111.861 169.434,126.814 163.120,135.200 160.608 C 140.742 158.947,142.044 157.068,139.388 154.563 C 138.593 153.813,137.695 153.200,137.392 153.200 C 137.089 153.200,136.352 152.559,135.755 151.776 C 135.158 150.993,134.204 150.108,133.635 149.809 C 130.890 148.366,125.250 141.733,125.861 140.667 C 126.008 140.410,125.982 140.332,125.804 140.493 C 125.626 140.655,124.883 139.845,124.153 138.693 C 123.424 137.542,122.468 136.151,122.029 135.602 C 121.298 134.687,119.194 128.835,119.198 127.729 C 119.199 127.469,118.969 127.019,118.686 126.729 C 115.076 123.019,114.920 92.188,118.462 82.400 C 119.139 80.530,119.666 78.357,119.634 77.571 C 119.592 76.543,119.860 75.836,120.588 75.051 C 121.145 74.450,121.603 73.833,121.607 73.679 C 121.611 73.526,122.141 72.623,122.785 71.674 C 123.428 70.724,123.856 69.690,123.735 69.375 C 123.496 68.753,125.847 64.800,126.456 64.800 C 126.855 64.800,128.400 61.476,128.400 60.617 C 128.400 60.333,129.030 59.413,129.799 58.573 C 130.568 57.733,131.063 56.946,130.899 56.823 C 130.428 56.472,130.358 55.600,130.800 55.600 C 131.020 55.600,131.204 55.375,131.209 55.100 C 131.214 54.825,131.570 54.150,132.000 53.600 C 133.549 51.620,132.756 50.702,128.200 49.203 C 126.660 48.696,125.310 48.148,125.200 47.986 C 125.090 47.823,123.470 47.098,121.600 46.374 C 118.081 45.012,117.029 44.437,117.392 44.074 C 117.509 43.958,116.748 43.578,115.702 43.231 C 114.581 42.859,113.793 42.354,113.782 42.000 C 113.772 41.670,113.555 41.442,113.301 41.494 C 112.674 41.621,107.017 35.968,107.007 35.206 C 107.003 34.872,106.796 34.638,106.548 34.684 C 106.299 34.730,105.776 34.415,105.386 33.984 C 104.995 33.553,104.818 33.200,104.992 33.200 C 105.166 33.200,104.832 32.826,104.250 32.368 C 103.661 31.904,103.311 31.329,103.460 31.068 C 103.608 30.811,103.579 30.735,103.397 30.901 C 102.996 31.264,101.600 30.079,101.600 29.377 C 101.600 29.102,100.925 28.307,100.100 27.609 C 99.275 26.911,98.853 26.471,99.162 26.632 C 99.534 26.825,99.626 26.766,99.434 26.455 C 99.275 26.198,98.988 26.084,98.797 26.202 C 98.606 26.320,98.302 26.153,98.121 25.831 C 97.941 25.509,96.612 24.640,95.168 23.900 C 93.724 23.161,92.015 22.197,91.371 21.758 C 90.727 21.320,89.750 20.737,89.200 20.463 C 88.650 20.188,87.390 19.486,86.400 18.902 C 84.507 17.785,73.334 17.191,68.400 17.945 M196.400 24.447 C 191.503 24.688,186.996 25.375,186.200 26.002 C 185.980 26.175,183.820 26.703,181.400 27.176 C 173.876 28.645,172.069 29.215,168.480 31.250 C 166.566 32.336,163.920 33.763,162.600 34.421 C 159.098 36.167,155.452 38.930,151.386 42.917 C 144.218 49.947,142.860 51.200,142.411 51.200 C 142.159 51.200,142.063 51.378,142.198 51.596 C 142.499 52.083,141.180 53.970,140.527 53.987 C 140.267 53.994,139.932 54.405,139.782 54.900 C 139.632 55.395,139.111 56.250,138.624 56.800 C 137.611 57.944,134.918 62.027,134.558 62.966 C 134.425 63.312,134.157 63.497,133.963 63.377 C 133.768 63.257,133.728 63.467,133.873 63.845 C 134.050 64.307,133.985 64.438,133.673 64.245 C 133.379 64.063,133.289 64.167,133.428 64.528 C 133.548 64.841,133.366 65.204,133.023 65.336 C 132.680 65.467,132.400 65.851,132.400 66.187 C 132.400 66.524,132.085 66.814,131.700 66.832 C 131.301 66.850,131.210 66.948,131.488 67.061 C 131.960 67.252,130.318 71.067,129.524 71.621 C 129.165 71.872,127.200 76.574,127.200 77.182 C 127.200 77.401,126.688 78.709,126.063 80.090 C 121.289 90.627,121.261 119.132,126.015 129.800 C 126.407 130.680,127.074 132.300,127.496 133.400 C 129.441 138.465,133.781 143.587,137.900 145.678 C 138.835 146.153,139.600 146.701,139.600 146.895 C 139.600 147.088,139.755 147.152,139.944 147.035 C 140.271 146.833,143.358 148.972,146.400 151.509 C 147.170 152.151,148.700 153.192,149.800 153.822 C 152.440 155.336,155.828 158.019,155.690 158.487 C 155.630 158.692,155.753 158.752,155.965 158.622 C 156.572 158.247,159.102 162.244,161.400 167.208 C 162.060 168.634,162.708 169.890,162.841 170.000 C 162.973 170.110,163.471 171.251,163.948 172.536 C 164.425 173.820,165.425 176.070,166.170 177.536 C 166.915 179.001,167.653 180.650,167.811 181.200 C 168.338 183.045,170.334 187.675,173.415 194.200 C 173.934 195.300,175.009 198.067,175.802 200.349 C 176.596 202.631,177.493 204.881,177.796 205.349 C 178.301 206.129,179.596 211.006,180.200 214.400 C 180.476 215.948,181.403 219.333,182.228 221.800 C 182.522 222.680,182.873 224.210,183.008 225.200 C 183.143 226.190,183.423 228.170,183.629 229.600 C 185.240 240.742,185.163 249.543,183.396 256.494 C 182.725 259.133,182.145 260.689,181.890 260.532 C 181.663 260.392,181.586 260.454,181.721 260.672 C 181.855 260.889,181.618 261.772,181.193 262.634 C 180.768 263.495,179.861 265.819,179.176 267.797 C 178.492 269.776,177.779 271.489,177.592 271.605 C 177.041 271.945,174.400 279.593,174.400 280.848 C 174.400 281.481,174.220 282.000,174.000 282.000 C 172.430 282.000,174.915 289.118,176.800 290.020 C 183.104 293.035,192.724 292.349,195.080 288.716 C 195.692 287.772,196.289 286.910,196.408 286.800 C 196.691 286.537,199.055 281.239,199.370 280.161 C 199.505 279.699,200.782 276.822,202.208 273.768 C 203.633 270.714,204.800 267.964,204.800 267.657 C 204.800 267.039,207.047 259.862,207.635 258.600 C 208.161 257.473,210.277 246.741,210.614 243.494 C 210.768 242.006,211.029 240.706,211.194 240.604 C 211.358 240.502,211.401 239.938,211.288 239.350 C 211.166 238.708,211.240 238.378,211.475 238.523 C 211.691 238.656,211.877 238.548,211.889 238.282 C 211.901 238.017,212.045 236.160,212.209 234.156 C 212.395 231.873,212.360 230.422,212.114 230.270 C 211.579 229.940,211.797 205.120,212.360 202.337 C 212.597 201.162,212.967 198.670,213.182 196.800 C 214.173 188.173,214.476 186.026,215.043 183.600 C 216.447 177.591,217.741 174.103,219.841 170.668 C 221.028 168.725,222.000 166.989,222.000 166.811 C 222.000 166.632,222.235 166.396,222.522 166.285 C 222.808 166.175,223.636 164.973,224.360 163.614 C 225.084 162.256,225.772 161.239,225.889 161.356 C 226.006 161.472,226.794 160.495,227.642 159.184 C 228.489 157.873,229.363 156.800,229.583 156.800 C 229.803 156.800,231.243 155.495,232.782 153.900 C 234.321 152.305,235.850 150.730,236.179 150.400 C 236.508 150.070,238.033 148.540,239.568 147.000 C 245.212 141.337,249.200 137.061,249.200 136.674 C 249.200 136.455,249.618 135.719,250.129 135.038 C 250.641 134.357,251.175 133.485,251.317 133.100 C 251.459 132.715,251.817 132.400,252.114 132.400 C 252.410 132.400,253.170 131.319,253.801 129.997 C 254.600 128.326,255.057 127.748,255.301 128.097 C 255.524 128.416,255.560 128.271,255.399 127.700 C 255.260 127.205,255.296 126.800,255.479 126.800 C 255.894 126.800,256.824 124.638,257.973 121.000 C 258.460 119.460,259.020 117.840,259.218 117.400 C 263.958 106.869,264.877 93.220,261.722 80.200 C 260.543 75.336,256.489 64.050,255.214 62.081 C 254.494 60.970,253.939 59.944,253.981 59.801 C 254.023 59.658,253.549 59.045,252.928 58.439 C 251.647 57.188,249.200 53.760,249.200 53.215 C 249.200 53.017,248.867 52.748,248.461 52.619 C 248.054 52.490,247.538 51.983,247.314 51.492 C 247.089 51.002,246.096 49.700,245.107 48.600 C 244.118 47.500,242.843 45.913,242.274 45.073 C 241.705 44.233,240.778 43.184,240.216 42.741 C 239.653 42.298,239.297 41.766,239.426 41.558 C 239.554 41.350,239.511 41.226,239.330 41.282 C 239.148 41.338,237.697 40.128,236.105 38.592 C 234.512 37.056,232.972 35.620,232.683 35.400 C 231.863 34.777,230.659 34.022,230.000 33.718 C 229.670 33.565,229.061 33.125,228.646 32.740 C 228.231 32.355,227.323 31.770,226.628 31.440 C 225.932 31.110,224.326 30.215,223.058 29.452 C 221.790 28.688,219.458 27.672,217.876 27.193 C 216.294 26.714,214.818 26.174,214.596 25.992 C 213.171 24.826,204.183 24.063,196.400 24.447 M327.400 26.659 C 322.749 27.200,317.177 28.206,316.000 28.716 C 315.230 29.050,314.452 29.291,314.270 29.252 C 314.089 29.212,314.055 29.366,314.196 29.593 C 314.456 30.015,313.833 30.380,312.531 30.567 C 312.079 30.632,311.753 31.067,311.676 31.707 C 311.608 32.276,311.259 32.980,310.899 33.271 C 310.344 33.721,310.299 33.711,310.600 33.200 C 310.904 32.684,310.860 32.676,310.281 33.145 C 309.911 33.445,309.693 33.826,309.795 33.992 C 309.897 34.158,309.594 34.632,309.122 35.047 C 308.649 35.461,308.394 35.575,308.555 35.300 C 309.111 34.349,308.489 34.804,307.805 35.849 C 307.426 36.427,307.343 36.759,307.620 36.587 C 307.957 36.379,308.024 36.438,307.821 36.765 C 307.655 37.034,307.267 37.158,306.960 37.040 C 306.649 36.921,306.400 37.067,306.400 37.370 C 306.400 37.949,305.471 38.495,304.275 38.618 C 303.876 38.659,303.281 39.077,302.952 39.547 C 302.624 40.016,302.084 40.400,301.754 40.400 C 301.397 40.400,301.270 40.590,301.442 40.868 C 301.638 41.185,301.511 41.251,301.045 41.073 C 300.652 40.922,300.459 40.972,300.593 41.189 C 300.781 41.493,299.203 42.120,296.000 43.015 C 294.979 43.300,293.238 44.305,293.431 44.498 C 293.772 44.839,290.765 45.626,290.276 45.323 C 290.032 45.173,290.004 45.283,290.204 45.606 C 290.449 46.003,290.342 46.064,289.778 45.847 C 289.363 45.688,289.153 45.686,289.310 45.844 C 289.468 46.001,288.837 46.470,287.909 46.885 C 286.981 47.301,286.127 47.786,286.011 47.963 C 285.662 48.498,281.940 50.010,281.557 49.773 C 281.360 49.652,281.200 49.717,281.200 49.917 C 281.200 50.252,276.113 52.800,275.444 52.800 C 275.284 52.800,275.281 52.592,275.438 52.338 C 275.616 52.050,275.548 51.985,275.255 52.166 C 274.998 52.325,274.887 52.618,275.010 52.816 C 275.132 53.014,274.730 53.297,274.116 53.443 C 273.502 53.590,272.820 53.845,272.600 54.009 C 272.380 54.173,271.570 54.436,270.800 54.593 C 270.030 54.750,268.980 55.145,268.468 55.470 C 267.955 55.795,267.271 55.959,266.947 55.835 C 266.623 55.711,266.448 55.754,266.558 55.932 C 266.668 56.109,266.165 56.469,265.441 56.731 C 262.926 57.640,262.685 59.377,264.560 63.100 C 269.594 73.093,273.178 92.292,270.718 96.085 C 270.377 96.610,270.023 98.461,269.887 100.429 C 269.541 105.412,267.807 113.625,266.177 118.000 C 264.401 122.767,260.328 130.803,259.842 130.502 C 259.641 130.378,259.602 130.479,259.755 130.728 C 259.909 130.976,259.666 131.493,259.217 131.878 C 258.768 132.263,258.400 132.776,258.400 133.018 C 258.400 133.637,255.885 137.107,255.400 137.158 C 255.180 137.181,254.999 137.335,254.999 137.500 C 254.995 138.279,252.195 141.607,251.702 141.418 C 251.403 141.303,251.269 141.388,251.405 141.607 C 251.540 141.826,251.386 142.107,251.062 142.232 C 250.738 142.356,250.256 142.982,249.990 143.624 C 249.709 144.302,249.317 144.681,249.054 144.531 C 248.804 144.388,248.729 144.414,248.886 144.588 C 249.253 144.995,248.468 146.489,248.030 146.218 C 247.848 146.106,247.472 146.830,247.192 147.827 C 246.629 149.839,247.189 152.800,248.132 152.800 C 248.407 152.800,249.435 153.537,250.416 154.438 C 251.397 155.339,253.054 156.660,254.098 157.373 C 255.142 158.086,255.862 158.804,255.698 158.968 C 255.534 159.132,255.602 159.207,255.850 159.133 C 256.097 159.060,256.934 159.573,257.710 160.273 C 258.485 160.974,259.218 161.449,259.337 161.330 C 259.665 161.002,262.041 162.809,261.799 163.202 C 261.683 163.389,261.951 163.657,262.394 163.798 C 262.837 163.939,263.200 164.312,263.200 164.627 C 263.200 164.942,263.335 165.166,263.500 165.125 C 263.959 165.009,266.800 166.830,266.800 167.240 C 266.800 167.438,266.997 167.600,267.237 167.600 C 267.845 167.600,269.614 169.038,269.386 169.347 C 269.284 169.486,269.327 169.503,269.482 169.385 C 269.636 169.267,270.277 169.672,270.905 170.285 C 273.575 172.892,274.115 173.373,273.845 172.905 C 273.652 172.571,273.761 172.487,274.177 172.646 C 274.517 172.777,274.697 173.043,274.577 173.237 C 274.457 173.432,274.662 173.474,275.034 173.332 C 275.505 173.151,275.652 173.243,275.518 173.636 C 275.396 173.997,275.935 174.495,277.014 175.020 C 277.941 175.470,279.127 176.289,279.650 176.839 C 280.172 177.389,280.420 177.549,280.200 177.193 C 279.980 176.838,280.340 177.112,281.000 177.802 C 281.660 178.492,283.056 179.465,284.101 179.964 C 285.198 180.488,285.891 181.053,285.739 181.298 C 285.588 181.542,285.665 181.607,285.920 181.450 C 286.319 181.203,287.147 181.708,288.597 183.081 C 288.876 183.345,289.215 183.452,289.349 183.318 C 289.483 183.184,292.121 184.374,295.212 185.964 C 301.644 189.272,305.623 190.676,310.400 191.324 C 311.754 191.507,314.901 192.466,315.422 192.854 C 317.408 194.333,330.550 194.318,333.800 192.833 C 338.677 190.606,340.761 189.478,340.961 188.958 C 341.078 188.651,341.451 188.400,341.787 188.400 C 342.124 188.400,342.401 188.265,342.402 188.100 C 342.403 187.935,342.954 187.213,343.626 186.496 C 344.298 185.779,345.284 184.240,345.816 183.077 C 346.349 181.913,347.303 180.381,347.935 179.672 C 348.568 178.964,349.407 177.672,349.799 176.803 C 350.191 175.933,350.679 175.325,350.883 175.451 C 351.087 175.577,351.204 175.437,351.144 175.140 C 350.978 174.325,351.565 172.400,351.979 172.400 C 352.418 172.400,354.000 168.299,354.000 167.161 C 354.000 166.652,354.171 166.458,354.462 166.638 C 354.734 166.806,354.816 166.749,354.661 166.498 C 354.341 165.981,355.212 162.000,355.644 162.000 C 355.813 162.000,356.058 161.145,356.190 160.100 C 356.321 159.055,356.604 157.204,356.818 155.986 C 357.188 153.874,357.418 150.676,358.437 133.400 C 358.684 129.220,359.034 125.707,359.216 125.593 C 359.398 125.479,359.667 122.869,359.815 119.793 C 359.962 116.717,360.187 113.660,360.315 113.000 C 360.443 112.340,360.573 101.180,360.604 88.200 C 360.635 75.220,360.799 63.700,360.967 62.600 C 361.306 60.384,360.775 58.400,359.843 58.400 C 359.526 58.400,359.207 58.265,359.133 58.100 C 359.060 57.935,358.460 57.490,357.800 57.110 C 357.140 56.731,356.639 56.254,356.686 56.051 C 356.734 55.848,356.391 55.782,355.924 55.904 C 355.391 56.043,355.171 55.971,355.333 55.708 C 355.617 55.248,354.666 54.267,354.295 54.638 C 354.168 54.765,353.759 54.404,353.386 53.835 C 353.013 53.266,352.489 52.800,352.222 52.800 C 351.754 52.800,349.200 49.572,349.200 48.980 C 349.200 48.822,348.750 48.275,348.200 47.765 C 346.965 46.620,346.874 44.600,347.952 42.244 C 350.116 37.514,350.433 36.530,350.319 34.901 C 350.252 33.941,349.997 33.201,349.734 33.201 C 349.477 33.200,349.034 32.673,348.749 32.029 C 348.464 31.385,348.119 30.926,347.984 31.010 C 347.549 31.279,344.801 28.767,344.768 28.071 C 344.751 27.702,344.654 27.601,344.553 27.848 C 344.419 28.171,343.942 28.149,342.837 27.768 C 340.034 26.802,331.465 26.187,327.400 26.659 M132.224 54.900 L 131.475 56.200 132.537 55.230 C 133.587 54.272,133.896 53.600,133.286 53.600 C 133.114 53.600,132.636 54.185,132.224 54.900 M129.755 58.212 C 129.390 58.769,129.014 59.147,128.918 59.051 C 128.681 58.814,129.716 57.200,130.105 57.200 C 130.278 57.200,130.120 57.656,129.755 58.212 M237.800 116.706 C 243.144 119.400,240.961 127.843,235.119 127.076 C 231.606 126.614,228.499 121.661,230.480 119.680 C 230.744 119.416,230.837 119.200,230.687 119.200 C 230.157 119.200,233.148 116.393,234.067 116.028 C 235.088 115.623,235.969 115.783,237.800 116.706 M231.820 118.538 C 230.555 120.197,230.440 122.000,231.600 122.000 C 232.444 122.000,232.676 121.418,232.000 121.000 C 231.231 120.525,231.610 119.263,232.831 118.236 C 233.612 117.578,233.838 117.200,233.451 117.200 C 233.115 117.200,232.382 117.802,231.820 118.538 M238.086 118.600 C 238.895 119.150,239.692 119.600,239.856 119.600 C 240.021 119.600,239.545 119.150,238.800 118.600 C 238.055 118.050,237.258 117.600,237.029 117.600 C 236.801 117.600,237.277 118.050,238.086 118.600 M149.379 119.166 C 149.503 119.367,149.379 119.635,149.102 119.762 C 148.826 119.889,149.006 119.892,149.503 119.768 C 150.517 119.517,152.800 121.456,152.800 122.569 C 152.800 122.916,152.980 123.200,153.200 123.200 C 154.190 123.200,153.449 125.056,151.801 126.704 C 147.814 130.691,141.369 126.745,143.238 121.462 C 143.822 119.812,144.928 118.780,145.481 119.369 C 145.656 119.556,145.575 119.790,145.300 119.888 C 145.025 119.986,144.800 120.335,144.800 120.662 C 144.800 121.163,144.904 121.154,145.458 120.599 C 145.990 120.067,146.181 120.043,146.452 120.470 C 146.693 120.851,146.789 120.756,146.794 120.133 C 146.797 119.657,147.025 119.176,147.300 119.065 C 148.132 118.729,149.139 118.778,149.379 119.166 M153.236 121.267 C 153.843 122.402,153.449 122.135,152.399 120.700 C 151.810 119.896,151.713 119.616,152.145 119.967 C 152.529 120.279,153.020 120.864,153.236 121.267 M231.218 123.234 C 231.464 123.693,231.744 123.989,231.842 123.892 C 232.122 123.612,231.554 122.400,231.143 122.400 C 230.939 122.400,230.973 122.775,231.218 123.234 M238.062 124.040 C 237.326 124.709,236.816 125.350,236.930 125.463 C 237.043 125.577,237.825 125.029,238.668 124.246 C 239.511 123.462,240.020 122.822,239.800 122.823 C 239.580 122.823,238.798 123.371,238.062 124.040 M150.969 125.431 C 150.072 126.404,149.533 127.200,149.771 127.200 C 150.173 127.200,151.472 125.936,152.751 124.300 C 153.855 122.887,152.551 123.715,150.969 125.431 M232.571 124.390 C 232.571 124.825,232.823 125.277,233.130 125.395 C 233.514 125.542,233.612 125.409,233.445 124.972 C 233.310 124.621,233.200 124.169,233.200 123.967 C 233.200 123.765,233.059 123.600,232.886 123.600 C 232.713 123.600,232.571 123.956,232.571 124.390 M144.027 125.273 C 143.999 125.976,146.277 127.856,146.675 127.459 C 146.800 127.333,146.448 127.023,145.892 126.769 C 145.336 126.516,144.695 125.924,144.468 125.454 C 144.144 124.786,144.048 124.746,144.027 125.273 M239.248 155.783 C 237.405 156.752,235.326 158.096,234.629 158.772 C 233.932 159.447,233.190 159.992,232.981 159.982 C 232.771 159.972,233.680 158.958,235.000 157.729 C 236.507 156.326,236.879 155.845,236.000 156.437 C 234.149 157.683,229.593 162.465,229.854 162.888 C 229.967 163.070,229.911 163.172,229.730 163.113 C 229.185 162.937,227.826 164.111,226.851 165.600 L 225.934 167.000 227.000 165.800 C 228.035 164.634,228.058 164.629,227.778 165.600 C 227.443 166.763,226.000 168.736,226.000 168.030 C 226.000 167.768,225.817 167.666,225.593 167.804 C 225.370 167.942,225.295 168.231,225.428 168.445 C 225.560 168.660,225.451 169.097,225.185 169.418 C 224.920 169.738,224.818 170.000,224.960 170.000 C 225.102 170.000,224.970 170.405,224.666 170.900 C 224.363 171.395,223.803 172.880,223.423 174.200 C 222.182 178.504,220.300 184.191,219.982 184.600 C 219.600 185.090,218.938 188.839,218.569 192.600 C 218.417 194.140,218.139 195.500,217.949 195.622 C 217.597 195.849,217.553 196.360,217.602 199.699 C 217.617 200.743,217.450 201.933,217.231 202.342 C 216.749 203.243,216.732 231.157,217.214 230.378 C 217.482 229.944,217.654 229.947,218.190 230.392 C 218.751 230.857,218.870 230.820,219.054 230.116 C 219.376 228.884,221.567 227.457,223.183 227.427 C 223.962 227.412,224.728 227.220,224.885 227.000 C 225.042 226.780,225.987 226.600,226.985 226.600 C 227.983 226.600,228.800 226.473,228.800 226.319 C 228.800 226.164,229.676 226.141,230.746 226.268 C 231.990 226.415,232.792 226.337,232.970 226.049 C 233.339 225.451,246.138 225.432,247.252 226.028 C 247.833 226.339,248.207 226.326,248.621 225.982 C 249.220 225.486,253.734 225.641,255.563 226.221 C 256.248 226.438,256.443 226.393,256.239 226.063 C 256.037 225.736,256.546 225.600,257.976 225.600 C 259.105 225.600,260.000 225.783,260.000 226.014 C 260.000 226.281,260.249 226.298,260.700 226.062 C 261.085 225.861,262.930 225.610,264.800 225.503 C 276.086 224.861,288.738 217.088,291.988 208.800 C 292.290 208.030,293.296 205.870,294.225 204.000 C 295.153 202.130,296.157 199.899,296.456 199.042 C 296.755 198.184,297.315 197.286,297.700 197.045 C 299.311 196.038,298.221 192.113,296.053 191.120 C 293.969 190.165,292.372 189.134,291.376 188.100 C 290.899 187.605,290.331 187.200,290.114 187.200 C 289.897 187.200,288.928 186.622,287.960 185.915 C 286.992 185.208,285.322 184.035,284.248 183.307 C 282.263 181.962,281.055 180.959,279.351 179.242 C 278.828 178.714,278.400 178.406,278.400 178.556 C 278.400 178.706,278.025 178.627,277.566 178.382 C 277.107 178.136,276.833 177.834,276.957 177.710 C 277.081 177.586,276.129 176.801,274.842 175.965 C 273.555 175.128,272.400 174.176,272.274 173.849 C 272.149 173.522,271.039 172.610,269.809 171.823 C 268.578 171.036,267.469 170.125,267.344 169.798 C 267.219 169.472,266.961 169.301,266.771 169.418 C 266.581 169.535,266.197 169.264,265.917 168.816 C 265.637 168.367,265.222 168.000,264.995 168.000 C 264.768 168.000,263.956 167.485,263.191 166.857 C 262.426 166.228,261.060 165.337,260.157 164.877 C 258.631 164.102,253.025 160.496,250.857 158.896 C 250.338 158.513,249.438 157.930,248.857 157.600 C 248.275 157.270,246.921 156.325,245.848 155.500 C 243.419 153.634,243.334 153.638,239.248 155.783 M146.511 162.849 C 146.265 163.095,145.257 163.320,144.273 163.349 C 143.288 163.377,142.553 163.515,142.638 163.656 C 142.879 164.055,140.064 164.474,139.132 164.179 C 138.663 164.030,138.399 164.074,138.527 164.281 C 138.651 164.483,137.459 164.952,135.877 165.323 C 134.294 165.695,131.920 166.430,130.600 166.957 C 126.962 168.410,126.249 168.585,126.580 167.943 C 126.756 167.601,126.663 167.624,126.330 168.005 C 125.591 168.848,123.627 169.664,123.108 169.343 C 122.868 169.195,122.791 169.261,122.934 169.493 C 123.200 169.923,121.813 170.540,120.860 170.417 C 120.563 170.378,120.420 170.508,120.542 170.706 C 120.664 170.903,119.557 171.485,118.082 171.998 C 116.607 172.511,114.419 173.447,113.221 174.078 C 112.022 174.708,110.807 175.135,110.521 175.025 C 110.234 174.915,110.000 174.985,110.000 175.180 C 110.000 175.376,109.101 175.834,108.002 176.199 C 106.904 176.564,105.846 177.146,105.652 177.493 C 105.447 177.859,105.032 178.021,104.662 177.879 C 104.312 177.745,103.902 177.835,103.751 178.079 C 103.573 178.367,103.661 178.410,104.000 178.200 C 104.354 177.981,104.427 178.032,104.226 178.357 C 104.063 178.622,103.630 178.809,103.265 178.773 C 102.065 178.655,101.549 178.794,101.782 179.171 C 101.908 179.375,101.650 179.657,101.208 179.797 C 100.766 179.938,100.117 180.340,99.766 180.691 C 99.299 181.158,99.049 181.203,98.837 180.859 C 98.511 180.332,96.000 181.361,96.000 182.022 C 96.000 182.221,95.505 182.508,94.900 182.658 C 94.295 182.809,93.350 183.262,92.800 183.666 C 91.321 184.751,85.236 186.800,83.491 186.800 C 82.452 186.800,81.895 187.007,81.722 187.459 C 81.353 188.422,83.766 195.421,85.397 198.120 C 86.169 199.396,86.800 200.579,86.800 200.749 C 86.800 200.919,87.335 201.765,87.989 202.629 C 89.144 204.155,89.605 205.497,88.805 205.003 C 88.573 204.860,88.514 205.030,88.660 205.413 C 88.857 205.925,88.981 205.954,89.234 205.545 C 89.586 204.975,90.159 205.905,89.920 206.660 C 89.762 207.158,94.438 212.000,95.077 212.000 C 95.349 212.000,95.788 212.405,96.053 212.899 C 96.318 213.393,96.600 213.599,96.681 213.356 C 96.827 212.919,99.941 214.183,100.422 214.875 C 100.544 215.051,102.524 215.838,104.822 216.624 C 107.120 217.410,109.556 218.306,110.236 218.615 C 111.923 219.382,114.880 220.113,120.800 221.228 C 123.550 221.746,125.892 222.297,126.004 222.454 C 126.271 222.824,131.519 223.015,131.867 222.667 C 132.236 222.298,138.800 222.329,138.800 222.700 C 138.800 222.865,141.756 223.012,145.370 223.026 C 150.179 223.045,152.109 223.193,152.573 223.578 C 152.972 223.909,153.730 224.019,154.621 223.874 C 157.427 223.419,170.973 226.097,175.333 227.970 C 177.721 228.995,177.600 229.005,177.600 227.787 C 177.600 227.231,177.849 226.679,178.154 226.562 C 178.907 226.273,175.287 212.070,173.983 210.200 C 173.830 209.980,173.036 208.000,172.218 205.800 C 171.401 203.600,170.595 201.620,170.427 201.400 C 170.260 201.180,169.537 199.290,168.820 197.200 C 168.104 195.110,167.262 192.995,166.950 192.500 C 166.637 192.005,166.489 191.600,166.619 191.600 C 166.750 191.600,166.575 191.317,166.229 190.972 C 165.884 190.627,165.484 189.862,165.340 189.272 C 165.078 188.197,163.652 185.071,162.569 183.200 C 162.251 182.650,162.063 181.894,162.153 181.519 C 162.242 181.145,162.183 180.785,162.023 180.719 C 161.862 180.654,161.054 178.653,160.228 176.274 C 159.402 173.895,158.474 171.465,158.165 170.874 C 157.857 170.283,157.604 169.602,157.602 169.360 C 157.601 169.118,157.060 168.175,156.400 167.263 C 155.740 166.352,155.200 165.348,155.200 165.031 C 155.200 164.714,154.660 164.070,154.000 163.600 C 153.340 163.130,152.800 162.884,152.800 163.053 C 152.800 163.222,152.584 163.144,152.320 162.880 C 151.712 162.272,147.113 162.247,146.511 162.849 M58.052 183.357 C 56.666 186.944,56.464 204.640,57.732 211.400 C 58.063 213.160,58.452 215.768,58.597 217.196 C 58.743 218.624,59.002 219.974,59.173 220.196 C 59.701 220.881,60.438 224.415,60.149 224.882 C 59.996 225.131,60.058 225.211,60.292 225.067 C 60.536 224.916,60.885 225.513,61.136 226.511 C 61.371 227.446,62.210 229.429,62.999 230.916 C 63.789 232.404,64.326 233.796,64.194 234.010 C 64.061 234.225,64.143 234.400,64.376 234.400 C 64.609 234.400,64.800 234.658,64.800 234.974 C 64.800 235.289,65.745 236.819,66.900 238.374 C 68.055 239.929,69.532 241.924,70.182 242.807 C 71.746 244.933,76.705 249.663,78.134 250.393 C 78.758 250.711,79.679 251.338,80.180 251.786 C 80.682 252.234,81.282 252.640,81.513 252.689 C 81.745 252.738,83.833 253.678,86.154 254.778 C 88.474 255.878,90.874 256.890,91.487 257.027 C 92.099 257.164,94.760 257.962,97.400 258.800 C 101.758 260.183,108.645 261.572,114.400 262.229 C 115.610 262.368,117.470 262.727,118.532 263.028 C 119.595 263.330,122.115 263.677,124.132 263.800 C 126.150 263.922,131.076 264.322,135.079 264.688 C 142.758 265.390,159.156 264.009,157.235 262.822 C 156.883 262.604,163.786 260.517,165.500 260.323 C 165.775 260.292,166.007 260.072,166.016 259.833 C 166.025 259.595,167.240 258.702,168.716 257.848 C 173.778 254.922,177.024 252.344,178.445 250.124 C 179.190 248.958,179.969 248.060,180.175 248.127 C 180.777 248.324,182.047 246.829,182.439 245.463 C 182.978 243.584,182.895 240.801,182.300 240.797 C 182.025 240.795,181.329 239.902,180.752 238.813 L 179.705 236.834 180.830 237.415 C 181.713 237.872,182.016 237.890,182.241 237.499 C 182.399 237.224,182.385 237.130,182.209 237.288 C 182.034 237.447,181.420 237.245,180.845 236.839 C 180.270 236.433,179.320 236.155,178.734 236.220 C 178.080 236.292,177.405 236.048,176.988 235.587 C 176.614 235.173,174.875 234.358,173.125 233.775 C 171.375 233.192,169.846 232.465,169.729 232.160 C 169.612 231.854,169.370 231.695,169.190 231.806 C 169.011 231.917,168.580 231.723,168.232 231.375 C 167.885 231.027,167.600 230.923,167.600 231.144 C 167.600 231.399,167.163 231.419,166.393 231.198 C 165.004 230.800,165.006 230.800,164.176 230.800 C 163.784 230.800,163.664 230.615,163.853 230.300 C 164.072 229.935,163.977 229.943,163.502 230.328 C 163.019 230.720,162.646 230.746,162.052 230.428 C 161.612 230.192,160.626 230.000,159.860 230.000 C 159.094 230.000,158.407 229.837,158.333 229.637 C 158.157 229.157,155.997 229.001,155.060 229.401 C 154.586 229.603,154.203 229.529,153.997 229.195 C 153.672 228.669,153.207 228.579,149.200 228.269 C 147.990 228.175,145.920 227.892,144.600 227.640 C 143.280 227.388,137.610 227.105,132.000 227.011 C 120.908 226.826,118.863 226.625,118.117 225.645 C 117.846 225.290,117.620 225.141,117.613 225.314 C 117.606 225.487,117.251 225.441,116.824 225.213 C 116.308 224.937,115.966 224.932,115.801 225.199 C 115.421 225.814,114.800 225.675,114.800 224.976 C 114.800 224.633,114.652 224.445,114.470 224.557 C 113.956 224.874,109.651 223.639,107.535 222.567 C 106.485 222.035,105.357 221.600,105.027 221.600 C 104.698 221.600,104.243 221.255,104.017 220.833 C 103.791 220.410,103.064 219.946,102.400 219.800 C 101.736 219.654,101.268 219.414,101.359 219.266 C 101.450 219.119,100.957 218.980,100.263 218.958 C 98.972 218.917,96.640 217.675,94.978 216.142 C 94.467 215.671,93.962 215.371,93.857 215.477 C 93.751 215.582,93.456 215.278,93.200 214.800 C 92.944 214.322,92.647 214.020,92.539 214.128 C 92.430 214.236,91.697 213.667,90.910 212.862 C 90.122 212.058,89.808 211.850,90.213 212.400 C 90.617 212.950,90.285 212.715,89.474 211.878 C 88.663 211.040,88.000 210.185,88.000 209.978 C 88.000 209.770,87.775 209.645,87.500 209.700 C 87.225 209.755,87.046 209.573,87.102 209.295 C 87.158 209.017,86.641 208.448,85.954 208.030 C 84.717 207.278,82.496 204.000,83.223 204.000 C 83.430 204.000,83.600 203.798,83.600 203.551 C 83.600 203.246,83.402 203.267,82.983 203.614 C 82.290 204.189,82.311 204.206,80.320 201.400 C 78.134 198.320,77.381 196.568,76.193 191.800 C 74.939 186.767,75.185 187.039,71.100 186.155 C 69.395 185.786,68.000 185.335,68.000 185.152 C 68.000 184.969,67.504 184.919,66.898 185.040 C 66.120 185.196,65.092 184.885,63.398 183.981 C 59.614 181.961,58.635 181.847,58.052 183.357 M301.425 197.702 C 301.013 199.443,300.457 201.086,300.190 201.353 C 299.924 201.619,299.569 202.279,299.401 202.819 C 299.234 203.358,298.727 204.520,298.275 205.400 C 297.823 206.280,296.957 208.398,296.352 210.108 C 294.498 215.342,291.655 219.041,286.013 223.557 C 284.335 224.900,276.954 228.400,275.799 228.400 C 275.469 228.400,275.200 228.610,275.200 228.867 C 275.200 229.123,275.082 229.215,274.937 229.070 C 274.792 228.925,274.459 228.985,274.197 229.202 C 272.800 230.362,270.784 230.432,241.200 230.351 C 229.322 230.318,225.518 230.828,223.465 232.727 C 222.989 233.166,221.514 234.159,220.186 234.932 C 217.877 236.276,217.770 236.410,217.706 238.004 C 217.669 238.920,217.425 239.928,217.164 240.244 C 216.446 241.109,217.025 245.354,218.200 247.837 C 218.750 249.000,219.200 250.147,219.200 250.387 C 219.200 254.613,226.973 261.172,233.600 262.537 C 234.150 262.650,235.662 263.115,236.959 263.571 C 242.129 265.384,245.834 266.000,251.532 265.994 C 263.341 265.982,276.619 264.682,282.000 263.011 C 282.990 262.704,285.150 262.179,286.800 261.844 C 289.766 261.242,291.400 260.728,299.600 257.819 C 307.564 254.995,314.882 250.327,314.476 248.331 C 314.445 248.183,314.968 247.477,315.636 246.761 C 316.305 246.045,317.104 244.973,317.411 244.378 C 317.719 243.784,318.240 243.194,318.569 243.067 C 318.898 242.941,319.648 241.884,320.235 240.719 C 320.822 239.553,321.459 238.540,321.651 238.467 C 321.843 238.393,322.000 238.065,322.000 237.738 C 322.000 237.411,322.254 236.889,322.565 236.578 C 325.447 233.696,326.192 207.300,323.517 202.858 C 321.318 199.206,320.820 198.874,315.922 197.802 C 308.394 196.153,307.408 195.910,307.200 195.650 C 307.090 195.512,306.730 195.370,306.400 195.334 C 306.070 195.298,304.985 195.103,303.988 194.902 L 302.176 194.536 301.425 197.702 M322.386 199.850 C 323.072 200.427,323.727 200.807,323.840 200.693 C 324.052 200.482,321.891 198.800,321.408 198.800 C 321.260 198.800,321.700 199.272,322.386 199.850 M289.700 214.204 C 288.545 215.627,287.600 216.974,287.600 217.196 C 287.600 217.418,287.375 217.604,287.100 217.608 C 286.825 217.612,285.790 218.449,284.800 219.468 L 283.000 221.319 285.700 219.188 C 287.185 218.016,288.402 216.864,288.403 216.628 C 288.405 216.393,289.006 215.568,289.738 214.796 C 290.889 213.582,292.254 211.583,291.914 211.609 C 291.851 211.613,290.855 212.781,289.700 214.204 M289.000 219.200 C 288.141 220.080,287.609 220.797,287.819 220.793 C 288.162 220.786,291.041 217.600,290.704 217.600 C 290.626 217.600,289.859 218.320,289.000 219.200 M245.900 228.282 C 246.395 228.378,247.205 228.378,247.700 228.282 C 248.195 228.187,247.790 228.109,246.800 228.109 C 245.810 228.109,245.405 228.187,245.900 228.282 M176.951 234.879 C 176.785 235.148,176.859 235.211,177.138 235.038 C 177.392 234.881,177.600 234.943,177.600 235.176 C 177.600 235.409,177.780 235.600,178.000 235.600 C 178.612 235.600,178.476 234.915,177.813 234.660 C 177.490 234.536,177.102 234.635,176.951 234.879 M67.884 251.164 C 67.930 252.394,68.135 258.350,68.340 264.400 C 68.833 278.942,69.568 286.800,70.436 286.800 C 70.636 286.800,70.800 287.151,70.800 287.579 C 70.800 288.719,72.703 294.680,73.807 297.000 C 74.330 298.100,75.319 300.436,76.004 302.192 C 76.689 303.947,77.383 305.477,77.546 305.592 C 77.709 305.706,78.605 307.305,79.538 309.145 C 80.470 310.985,81.506 312.763,81.840 313.097 C 82.173 313.430,82.336 313.989,82.202 314.339 C 82.068 314.689,82.083 314.851,82.235 314.698 C 82.388 314.546,83.039 315.250,83.682 316.264 C 84.325 317.278,85.111 318.368,85.428 318.685 C 86.348 319.605,86.860 320.779,86.557 321.270 C 86.383 321.551,86.455 321.613,86.745 321.434 C 87.045 321.248,87.480 321.739,87.954 322.796 C 88.360 323.704,88.852 324.411,89.047 324.366 C 89.241 324.322,89.940 325.379,90.600 326.716 C 91.260 328.054,92.036 329.159,92.324 329.174 C 92.612 329.188,92.736 329.380,92.600 329.600 C 92.464 329.820,92.573 330.000,92.843 330.000 C 93.113 330.000,93.224 330.109,93.090 330.243 C 92.957 330.377,93.282 330.954,93.812 331.526 C 94.343 332.099,94.612 332.669,94.409 332.794 C 94.207 332.919,94.572 333.377,95.220 333.811 C 95.868 334.245,96.398 334.836,96.399 335.124 C 96.399 335.412,96.556 335.551,96.747 335.433 C 96.937 335.315,97.415 335.575,97.809 336.009 C 98.202 336.444,98.379 336.800,98.203 336.800 C 98.026 336.800,98.493 337.212,99.241 337.716 C 99.988 338.220,100.600 338.895,100.600 339.216 C 100.600 339.537,100.816 339.800,101.080 339.800 C 102.250 339.800,102.504 340.700,101.834 342.466 C 99.715 348.045,101.013 363.173,104.033 368.106 C 104.675 369.154,105.200 370.162,105.200 370.345 C 105.200 370.529,105.965 371.560,106.900 372.637 C 112.054 378.573,118.583 383.122,123.567 384.247 C 125.122 384.598,126.300 385.038,126.185 385.224 C 126.070 385.410,126.746 385.753,127.688 385.986 C 128.630 386.219,130.066 386.592,130.879 386.815 C 135.149 387.984,145.283 386.828,146.801 384.999 C 147.403 384.274,148.144 384.201,147.805 384.900 C 147.672 385.175,147.863 384.995,148.230 384.500 C 148.597 384.005,149.102 383.600,149.353 383.600 C 149.603 383.600,150.037 383.233,150.317 382.784 C 150.597 382.336,150.972 382.059,151.150 382.169 C 151.328 382.279,152.077 381.746,152.815 380.984 C 153.553 380.223,153.987 379.599,153.778 379.598 C 153.570 379.597,153.940 379.134,154.600 378.569 C 155.260 378.004,155.577 377.655,155.305 377.792 C 154.981 377.955,154.890 377.830,155.043 377.433 C 155.171 377.099,155.462 376.865,155.689 376.913 C 155.916 376.961,156.176 376.497,156.267 375.883 C 156.358 375.269,157.055 373.350,157.816 371.618 C 158.577 369.887,159.200 368.095,159.200 367.635 C 159.200 367.176,159.380 366.800,159.600 366.800 C 160.181 366.800,160.108 361.068,159.520 360.480 C 159.147 360.107,159.169 359.999,159.620 359.994 C 160.113 359.989,160.110 359.930,159.600 359.600 C 159.200 359.342,159.167 359.210,159.500 359.206 C 159.775 359.203,160.000 359.009,160.000 358.776 C 160.000 358.543,159.846 358.448,159.658 358.564 C 159.470 358.681,159.406 358.304,159.516 357.728 C 159.642 357.069,159.563 356.775,159.304 356.936 C 159.048 357.094,158.788 356.315,158.622 354.895 C 158.474 353.633,157.814 350.549,157.156 348.042 C 156.497 345.536,156.052 343.241,156.167 342.942 C 156.281 342.644,156.181 342.400,155.945 342.400 C 155.708 342.400,155.618 342.130,155.745 341.800 C 155.871 341.470,155.822 341.200,155.634 341.200 C 155.447 341.200,155.199 340.840,155.084 340.400 C 154.969 339.959,155.072 339.600,155.314 339.600 C 155.555 339.600,155.421 339.357,155.015 339.061 C 154.551 338.721,154.397 338.328,154.601 337.999 C 154.793 337.688,154.766 337.574,154.535 337.717 C 154.321 337.849,153.651 336.980,153.046 335.786 C 152.441 334.591,151.733 333.486,151.473 333.330 C 151.199 333.166,151.238 333.373,151.566 333.823 C 151.877 334.250,151.400 333.790,150.508 332.800 C 149.615 331.810,148.966 330.865,149.066 330.700 C 149.165 330.535,148.887 330.400,148.447 330.400 C 148.007 330.400,147.519 330.192,147.362 329.938 C 147.171 329.629,147.262 329.582,147.638 329.797 C 148.025 330.017,148.075 329.986,147.800 329.696 C 147.310 329.178,141.234 326.804,140.394 326.802 C 140.061 326.801,139.116 326.440,138.296 326.000 C 137.475 325.560,136.502 325.200,136.135 325.200 C 135.767 325.200,135.565 325.102,135.685 324.981 C 135.984 324.682,144.529 325.575,144.790 325.932 C 145.109 326.369,149.206 328.400,149.767 328.400 C 150.262 328.400,155.200 333.289,155.200 333.779 C 155.200 333.923,155.810 334.617,156.556 335.320 C 158.189 336.861,158.412 337.281,160.130 342.060 C 161.621 346.208,162.022 348.104,163.078 356.000 C 163.853 361.798,163.971 366.708,163.429 370.679 L 163.091 373.157 164.245 373.445 C 164.880 373.603,166.120 374.059,167.000 374.458 C 167.880 374.856,169.230 375.190,170.000 375.198 C 170.770 375.207,174.550 375.858,178.400 376.646 C 193.001 379.632,214.272 381.461,215.865 379.868 C 216.021 379.713,215.942 376.214,215.690 372.093 C 215.055 361.701,215.231 357.046,216.336 355.006 C 216.811 354.129,217.200 353.126,217.200 352.777 C 217.200 351.318,218.499 348.352,219.046 348.562 C 219.351 348.679,219.600 348.616,219.600 348.421 C 219.600 348.226,219.424 348.007,219.209 347.933 C 217.862 347.473,225.179 339.569,229.620 336.687 C 231.325 335.581,239.203 333.443,239.709 333.949 C 240.003 334.243,241.522 334.330,244.177 334.207 L 248.200 334.021 244.400 334.607 C 238.989 335.442,235.554 336.317,234.718 337.074 C 234.321 337.434,233.887 337.620,233.755 337.488 C 233.623 337.356,233.309 337.422,233.057 337.635 C 232.806 337.848,231.767 338.602,230.748 339.311 C 224.939 343.355,219.610 353.149,219.509 359.967 C 219.431 365.245,220.016 377.591,220.391 378.577 C 220.628 379.201,220.741 379.792,220.642 379.892 C 220.355 380.178,221.557 383.289,222.250 384.055 C 222.597 384.439,222.744 384.968,222.577 385.237 C 222.385 385.547,222.444 385.620,222.738 385.438 C 222.992 385.281,223.200 385.309,223.200 385.501 C 223.200 385.692,223.605 386.285,224.100 386.817 C 224.595 387.349,224.951 387.936,224.890 388.122 C 224.830 388.308,224.950 388.354,225.158 388.226 C 225.508 388.010,226.551 388.784,226.864 389.493 C 226.939 389.662,227.990 390.321,229.200 390.957 C 230.410 391.593,231.788 392.463,232.261 392.890 C 232.735 393.317,233.725 393.815,234.461 393.995 C 236.277 394.441,240.952 396.141,241.200 396.446 C 242.346 397.855,257.121 397.791,258.580 396.370 C 258.789 396.166,259.368 396.000,259.866 396.000 C 260.364 396.000,261.633 395.701,262.686 395.335 C 263.739 394.969,264.986 394.695,265.458 394.727 C 265.929 394.758,266.559 394.488,266.858 394.127 C 267.347 393.533,267.312 393.516,266.500 393.949 C 265.061 394.715,265.461 393.799,267.100 392.573 C 269.165 391.029,273.600 386.420,273.600 385.817 C 273.600 385.546,273.953 385.005,274.384 384.614 C 274.815 384.224,275.147 383.791,275.121 383.652 C 275.094 383.514,275.192 383.130,275.338 382.800 C 278.345 375.995,279.912 367.926,278.797 364.992 C 278.576 364.410,278.524 363.723,278.682 363.467 C 278.841 363.210,278.920 362.518,278.858 361.929 C 278.754 360.941,279.947 359.680,280.481 360.214 C 280.583 360.316,280.667 360.130,280.667 359.800 C 280.667 359.470,280.489 359.200,280.271 359.200 C 280.054 359.200,280.198 358.844,280.591 358.409 C 280.985 357.975,281.463 357.715,281.653 357.833 C 281.844 357.951,282.000 357.779,282.000 357.451 C 282.000 357.123,282.542 356.468,283.205 355.997 C 283.867 355.525,284.296 354.955,284.157 354.731 C 284.019 354.507,284.422 353.814,285.053 353.191 C 286.361 351.900,288.624 349.294,290.329 347.113 C 290.969 346.295,291.621 345.755,291.779 345.913 C 291.937 346.071,292.016 346.020,291.954 345.800 C 291.762 345.116,292.430 343.600,292.927 343.592 C 293.187 343.588,293.939 342.705,294.598 341.630 C 295.258 340.554,295.960 339.775,296.160 339.899 C 296.360 340.023,296.399 339.922,296.247 339.676 C 295.947 339.191,297.323 337.600,298.043 337.600 C 298.286 337.600,298.387 337.343,298.266 337.028 C 298.145 336.713,298.603 335.688,299.282 334.750 C 299.962 333.812,301.104 331.954,301.820 330.622 C 302.536 329.290,303.565 327.382,304.106 326.382 C 304.647 325.382,305.594 323.132,306.211 321.382 C 306.827 319.632,307.442 318.110,307.577 318.000 C 307.852 317.776,309.666 311.391,310.417 308.000 C 310.685 306.790,311.052 305.613,311.231 305.385 C 312.987 303.150,314.670 277.692,313.416 272.332 C 312.424 268.094,311.556 265.499,310.915 264.858 C 310.606 264.549,310.464 264.011,310.598 263.661 C 310.732 263.311,310.710 263.157,310.548 263.318 C 310.387 263.480,309.874 262.857,309.409 261.933 C 307.960 259.055,305.042 259.269,296.939 262.850 C 295.324 263.564,284.471 266.139,276.800 267.628 C 268.522 269.235,237.371 268.493,233.746 266.603 C 233.116 266.274,232.050 266.004,231.379 266.002 C 229.449 265.999,226.333 264.200,223.557 261.486 C 221.208 259.191,219.999 257.483,217.172 252.466 C 215.694 249.843,212.000 249.049,212.000 251.356 C 212.000 251.873,211.636 253.437,211.190 254.831 C 210.745 256.226,210.182 258.634,209.940 260.183 C 209.511 262.925,207.750 268.799,207.236 269.200 C 207.095 269.310,206.298 271.560,205.464 274.200 C 204.630 276.840,203.779 279.060,203.574 279.133 C 203.368 279.207,203.200 279.482,203.200 279.745 C 203.200 280.483,200.530 285.880,199.454 287.317 C 198.925 288.023,198.376 288.985,198.234 289.455 C 198.091 289.926,197.539 290.781,197.006 291.355 C 196.474 291.930,196.144 292.400,196.273 292.400 C 196.402 292.400,195.994 292.805,195.365 293.300 C 193.422 294.830,178.811 294.705,175.873 293.132 C 174.452 292.372,171.200 289.310,171.200 288.733 C 171.200 288.581,170.885 288.142,170.500 287.757 C 169.715 286.971,169.587 283.980,170.303 283.116 C 170.537 282.832,171.300 280.446,171.997 277.814 C 172.694 275.182,173.768 271.942,174.383 270.614 C 174.998 269.286,175.634 267.750,175.797 267.200 C 176.193 265.859,177.566 263.309,178.796 261.631 C 179.348 260.878,179.812 259.798,179.826 259.231 C 179.864 257.754,181.254 255.135,181.874 255.373 C 182.730 255.701,181.574 254.116,180.620 253.652 C 180.169 253.433,180.025 253.242,180.300 253.227 C 180.575 253.212,180.800 252.989,180.800 252.730 C 180.800 252.472,180.358 252.676,179.818 253.183 C 179.277 253.691,178.864 254.217,178.899 254.353 C 179.587 257.046,169.741 263.918,163.659 264.990 C 162.989 265.108,161.937 265.396,161.321 265.630 C 160.704 265.865,160.110 266.067,160.000 266.079 C 159.602 266.124,158.574 266.497,157.332 267.046 C 156.634 267.355,155.464 267.721,154.732 267.860 C 153.999 267.999,153.194 268.274,152.941 268.471 C 152.334 268.946,145.745 269.513,145.091 269.147 C 144.347 268.730,139.115 268.675,131.800 269.006 C 126.300 269.254,124.576 269.174,119.541 268.432 C 109.191 266.907,100.208 265.039,100.547 264.481 C 100.641 264.327,99.992 264.172,99.105 264.137 C 98.218 264.102,97.382 263.922,97.246 263.737 C 97.111 263.552,96.461 263.360,95.803 263.311 C 95.145 263.263,94.407 262.950,94.163 262.618 C 93.920 262.285,93.633 262.100,93.525 262.208 C 93.339 262.395,91.506 261.903,89.800 261.208 C 89.360 261.029,87.560 260.484,85.800 259.998 C 81.472 258.801,75.298 254.836,76.262 253.872 C 76.411 253.722,76.323 253.600,76.066 253.600 C 75.808 253.600,74.943 252.875,74.143 251.989 C 73.343 251.104,72.598 250.468,72.489 250.578 C 72.380 250.687,71.790 250.420,71.178 249.984 C 68.773 248.272,67.789 248.625,67.884 251.164 M178.041 252.214 C 177.359 252.992,176.800 253.796,176.800 254.001 C 176.800 254.206,176.305 254.643,175.700 254.971 C 175.095 255.299,174.801 255.575,175.046 255.584 C 175.677 255.607,177.600 254.032,177.600 253.493 C 177.600 253.246,178.084 252.539,178.675 251.922 C 179.266 251.305,179.645 250.800,179.516 250.800 C 179.388 250.800,178.724 251.436,178.041 252.214 M73.800 252.000 C 74.198 252.440,74.322 252.800,74.076 252.800 C 73.830 252.800,73.435 252.440,73.200 252.000 C 72.965 251.560,72.840 251.200,72.924 251.200 C 73.008 251.200,73.402 251.560,73.800 252.000 M177.200 255.708 C 176.430 256.423,175.201 257.502,174.469 258.104 C 173.737 258.707,173.328 259.200,173.559 259.200 C 173.972 259.200,179.191 254.438,178.800 254.417 C 178.690 254.412,177.970 254.992,177.200 255.708 M197.378 309.964 C 197.779 310.613,197.169 311.516,196.003 311.999 C 193.510 313.031,191.437 316.017,192.781 316.639 C 195.319 317.813,200.424 324.000,198.854 324.000 C 198.336 324.000,196.394 322.394,194.863 320.700 C 194.117 319.875,193.279 319.200,192.999 319.200 C 192.720 319.200,192.197 318.750,191.837 318.200 C 191.021 316.956,190.542 316.946,189.233 318.150 C 188.665 318.673,186.992 320.225,185.515 321.599 C 183.723 323.267,182.620 324.017,182.198 323.855 C 181.266 323.497,181.865 322.640,185.365 319.330 C 189.212 315.691,189.216 315.711,184.400 313.333 C 181.447 311.874,180.440 310.739,181.700 310.287 C 182.188 310.112,183.600 310.660,184.000 311.180 C 184.110 311.323,185.591 312.130,187.292 312.974 L 190.384 314.507 192.092 312.976 C 193.031 312.133,193.980 311.231,194.200 310.972 C 195.144 309.857,196.956 309.282,197.378 309.964 M254.580 334.051 C 254.801 334.254,254.100 334.400,252.904 334.400 C 251.018 334.400,250.099 334.034,250.636 333.497 C 250.944 333.189,254.129 333.636,254.580 334.051 M225.109 341.300 C 223.367 343.115,221.570 345.140,221.116 345.800 C 220.661 346.460,221.478 345.740,222.931 344.200 C 224.383 342.660,225.578 341.273,225.586 341.118 C 225.594 340.963,226.436 340.198,227.458 339.418 C 228.479 338.638,229.081 338.000,228.796 338.000 C 228.510 338.000,226.851 339.485,225.109 341.300 M152.392 380.948 C 151.846 381.469,151.313 381.817,151.206 381.721 C 151.021 381.553,152.791 380.027,153.192 380.009 C 153.297 380.004,152.937 380.427,152.392 380.948 M270.790 390.272 L 269.502 392.200 270.701 391.000 C 271.361 390.340,271.831 389.680,271.748 389.534 C 271.664 389.388,271.821 389.188,272.098 389.089 C 272.374 388.990,272.482 388.782,272.339 388.627 C 272.195 388.471,271.498 389.211,270.790 390.272 M391.356 397.992 C 390.891 398.180,390.401 398.620,390.267 398.970 C 390.083 399.449,390.319 399.388,391.211 398.729 C 392.789 397.562,392.821 397.400,391.356 397.992 " stroke="none" fill="#040404" fill-rule="evenodd"></path><path id="path1" d="M134.800 48.967 C 134.800 49.315,135.085 49.600,135.433 49.600 C 136.140 49.600,136.017 48.739,135.275 48.492 C 135.014 48.405,134.800 48.618,134.800 48.967 M133.200 51.829 C 133.200 52.201,132.820 53.157,132.355 53.953 L 131.510 55.400 132.755 54.046 C 134.037 52.652,134.299 51.832,133.600 51.400 C 133.380 51.264,133.200 51.457,133.200 51.829 M258.667 51.467 C 258.169 51.964,258.397 53.200,258.986 53.200 C 259.638 53.200,260.515 51.848,260.119 51.453 C 259.789 51.122,259.004 51.130,258.667 51.467 M256.655 53.000 C 256.515 53.365,256.655 53.600,257.013 53.600 C 257.336 53.600,257.600 53.330,257.600 53.000 C 257.600 52.670,257.439 52.400,257.243 52.400 C 257.046 52.400,256.782 52.670,256.655 53.000 M262.900 57.865 C 262.334 58.093,262.212 59.200,262.753 59.200 C 262.948 59.200,263.201 58.840,263.316 58.400 C 263.431 57.960,263.497 57.614,263.463 57.632 C 263.428 57.649,263.175 57.754,262.900 57.865 M262.480 60.700 C 263.191 62.159,263.755 63.529,264.995 66.800 C 266.396 70.499,267.664 73.270,267.864 73.070 C 268.093 72.840,266.710 68.800,266.402 68.800 C 266.216 68.800,265.939 68.215,265.787 67.500 C 265.457 65.945,262.962 60.400,262.593 60.400 C 262.450 60.400,262.399 60.535,262.480 60.700 M125.200 66.601 C 124.723 67.371,124.399 68.198,124.479 68.438 C 124.559 68.678,124.889 68.363,125.212 67.737 C 125.535 67.112,126.024 66.456,126.299 66.280 C 126.882 65.908,126.969 65.200,126.433 65.200 C 126.231 65.200,125.676 65.830,125.200 66.601 M265.553 74.620 C 265.496 75.073,265.511 75.212,265.748 76.449 C 266.214 78.883,266.792 79.416,266.562 77.200 C 266.361 75.265,265.687 73.542,265.553 74.620 M268.446 75.645 C 268.421 76.000,268.583 77.253,268.806 78.430 C 269.279 80.923,269.855 85.976,270.217 90.800 C 270.577 95.609,270.800 95.289,270.798 89.967 C 270.795 85.327,269.896 77.848,269.244 77.042 C 269.047 76.799,268.798 76.240,268.689 75.800 C 268.554 75.250,268.478 75.202,268.446 75.645 M119.745 77.000 C 119.437 77.801,119.891 78.915,120.397 78.602 C 120.927 78.274,120.919 76.400,120.387 76.400 C 120.161 76.400,119.871 76.670,119.745 77.000 M236.800 117.013 C 236.800 117.336,237.048 117.600,237.351 117.600 C 237.654 117.600,238.126 117.870,238.400 118.200 C 239.169 119.127,239.770 118.909,239.124 117.937 C 238.380 116.815,236.800 116.187,236.800 117.013 M148.036 119.444 C 148.374 119.850,148.626 119.923,148.720 119.641 C 148.801 119.396,149.061 119.314,149.296 119.459 C 149.549 119.616,149.607 119.535,149.438 119.262 C 149.281 119.008,148.781 118.800,148.327 118.800 C 147.614 118.800,147.575 118.887,148.036 119.444 M238.770 124.238 C 238.236 124.809,237.170 125.611,236.400 126.021 C 235.433 126.535,235.233 126.770,235.753 126.782 C 236.875 126.809,238.999 125.359,239.523 124.210 C 240.102 122.939,239.979 122.943,238.770 124.238 M146.400 124.249 C 146.400 124.780,146.509 124.808,147.000 124.400 C 147.330 124.126,147.600 123.834,147.600 123.751 C 147.600 123.668,147.330 123.600,147.000 123.600 C 146.670 123.600,146.400 123.892,146.400 124.249 M231.752 124.707 C 232.274 125.716,233.510 126.683,233.799 126.309 C 233.846 126.249,233.265 125.595,232.509 124.856 L 231.134 123.511 231.752 124.707 M151.173 126.256 C 150.327 127.146,150.109 127.542,150.604 127.287 C 151.585 126.784,153.001 125.267,152.737 125.004 C 152.632 124.898,151.928 125.462,151.173 126.256 M234.843 152.823 C 234.317 153.261,234.001 153.735,234.142 153.875 C 234.562 154.295,236.400 153.265,236.400 152.609 C 236.400 151.804,236.002 151.859,234.843 152.823 M239.300 154.446 C 237.916 155.332,237.532 156.146,238.700 155.718 C 239.085 155.577,240.027 155.043,240.793 154.531 C 242.623 153.308,241.203 153.227,239.300 154.446 M145.467 157.867 C 144.869 158.464,145.276 158.800,146.600 158.800 C 148.049 158.800,148.475 158.268,147.367 157.843 C 146.540 157.525,145.799 157.535,145.467 157.867 M227.680 159.680 C 227.125 160.235,227.033 161.600,227.551 161.600 C 227.978 161.600,228.588 160.845,228.925 159.900 C 229.215 159.088,228.414 158.946,227.680 159.680 M137.389 160.126 C 136.955 160.415,134.620 161.247,132.200 161.975 C 129.780 162.703,126.630 163.831,125.200 164.481 C 123.770 165.132,120.800 166.378,118.600 167.251 C 113.580 169.242,101.200 175.234,101.200 175.673 C 101.200 176.264,102.568 175.984,104.400 175.018 C 108.351 172.934,116.746 168.966,118.000 168.590 C 118.550 168.425,120.170 167.702,121.600 166.983 C 123.030 166.264,125.958 165.119,128.106 164.438 C 130.254 163.757,132.324 163.027,132.706 162.816 C 133.088 162.606,134.513 162.046,135.874 161.573 C 137.235 161.099,138.444 160.462,138.562 160.156 C 138.829 159.458,138.407 159.447,137.389 160.126 M137.800 161.697 C 137.360 161.956,136.792 162.203,136.538 162.244 C 135.527 162.407,134.526 163.174,135.306 163.188 C 136.590 163.210,139.200 162.214,139.200 161.703 C 139.200 161.084,138.840 161.083,137.800 161.697 M142.200 161.922 C 140.660 162.263,139.310 162.668,139.200 162.821 C 139.090 162.974,138.415 163.226,137.700 163.382 C 136.376 163.669,135.890 164.400,137.023 164.400 C 137.703 164.400,141.039 163.665,142.000 163.303 C 142.330 163.179,142.780 163.052,143.000 163.020 C 145.291 162.694,148.340 161.826,148.169 161.549 C 147.861 161.051,145.451 161.202,142.200 161.922 M125.032 167.548 C 124.914 167.740,124.228 168.013,123.508 168.155 C 120.886 168.671,114.886 172.000,116.576 172.000 C 116.919 172.000,117.200 171.812,117.200 171.582 C 117.200 171.353,117.426 171.217,117.703 171.281 C 118.183 171.391,122.734 169.582,124.000 168.779 C 124.330 168.569,125.005 168.223,125.500 168.009 C 125.995 167.795,126.400 167.525,126.400 167.410 C 126.400 167.060,125.263 167.175,125.032 167.548 M221.628 169.366 C 221.330 169.725,221.205 170.138,221.350 170.283 C 221.723 170.657,222.522 169.767,222.330 169.191 C 222.220 168.860,222.003 168.914,221.628 169.366 M221.862 176.281 C 221.140 177.676,219.876 182.410,220.152 182.685 C 220.260 182.793,220.470 182.231,220.620 181.436 C 220.769 180.642,221.046 179.895,221.235 179.778 C 221.638 179.529,222.877 175.543,222.628 175.295 C 222.535 175.202,222.190 175.645,221.862 176.281 M59.700 176.709 C 59.205 176.790,58.800 177.102,58.800 177.404 C 58.800 178.194,59.566 178.554,59.823 177.885 C 59.965 177.515,60.415 177.386,61.120 177.514 C 61.714 177.621,62.110 177.634,62.000 177.541 C 61.151 176.829,60.473 176.583,59.700 176.709 M95.657 178.356 C 95.317 178.572,95.266 178.794,95.521 178.951 C 96.023 179.261,97.200 178.845,97.200 178.357 C 97.200 177.906,96.368 177.906,95.657 178.356 M90.800 180.200 C 90.800 180.533,91.156 180.800,91.600 180.800 C 92.044 180.800,92.400 180.533,92.400 180.200 C 92.400 179.867,92.044 179.600,91.600 179.600 C 91.156 179.600,90.800 179.867,90.800 180.200 M69.727 181.410 C 71.692 182.420,72.800 182.659,72.800 182.073 C 72.800 181.766,68.958 180.388,68.165 180.410 C 67.964 180.416,68.667 180.866,69.727 181.410 M63.043 182.169 C 63.293 182.819,64.395 183.339,64.757 182.977 C 65.008 182.725,63.683 181.600,63.136 181.600 C 62.965 181.600,62.923 181.856,63.043 182.169 M69.384 183.227 C 69.066 183.741,69.144 183.822,70.300 184.177 C 71.360 184.503,71.610 183.443,70.567 183.043 C 69.733 182.723,69.691 182.729,69.384 183.227 M76.200 183.200 C 76.640 183.389,77.720 183.536,78.600 183.526 L 80.200 183.508 78.600 183.177 C 77.720 182.995,76.640 182.848,76.200 182.851 L 75.400 182.856 76.200 183.200 M289.600 183.548 C 289.600 185.093,301.830 191.021,302.292 189.700 C 302.388 189.425,302.193 189.200,301.859 189.200 C 301.525 189.200,298.630 187.859,295.426 186.220 C 292.222 184.581,289.600 183.379,289.600 183.548 M88.200 184.490 C 87.540 184.725,86.640 185.177,86.200 185.495 L 85.400 186.074 86.200 185.863 C 89.165 185.079,90.400 184.630,90.400 184.337 C 90.400 183.905,89.708 183.954,88.200 184.490 M215.802 187.185 C 215.525 188.827,215.740 189.600,216.473 189.600 C 216.754 189.600,216.740 189.410,216.432 189.039 C 216.176 188.730,216.126 188.415,216.320 188.339 C 216.967 188.084,217.244 185.600,216.625 185.600 C 216.290 185.600,215.964 186.229,215.802 187.185 M288.744 186.413 C 289.264 186.846,289.939 187.200,290.244 187.200 C 290.550 187.200,290.800 187.341,290.800 187.512 C 290.800 187.684,291.340 188.028,292.000 188.278 C 294.209 189.111,293.342 187.873,290.895 186.699 C 288.212 185.413,287.416 185.307,288.744 186.413 M77.997 186.900 C 77.991 188.129,80.250 194.398,80.700 194.399 C 81.348 194.400,81.341 194.328,80.412 191.228 C 79.979 189.783,79.525 188.105,79.404 187.500 C 79.189 186.422,78.003 185.916,77.997 186.900 M75.586 187.500 C 75.802 187.885,76.332 189.937,76.763 192.060 C 77.266 194.532,78.007 196.733,78.823 198.179 C 80.102 200.445,80.968 201.068,79.877 198.937 C 78.800 196.834,77.283 192.617,76.804 190.400 C 76.105 187.155,75.983 186.800,75.570 186.800 C 75.341 186.800,75.347 187.074,75.586 187.500 M218.212 189.317 C 218.041 189.712,218.013 190.147,218.151 190.284 C 218.557 190.690,218.884 190.120,218.697 189.331 C 218.532 188.633,218.510 188.632,218.212 189.317 M77.600 190.303 C 77.600 190.469,77.790 191.234,78.022 192.003 C 78.254 192.771,78.516 193.897,78.604 194.505 C 78.764 195.617,80.317 198.975,81.357 200.461 C 82.127 201.559,82.644 200.639,81.907 199.482 C 81.599 198.997,80.925 197.430,80.411 196.000 C 78.795 191.504,77.600 189.082,77.600 190.303 M81.200 191.005 C 81.200 191.118,81.369 191.523,81.576 191.905 C 81.783 192.287,82.061 193.116,82.195 193.747 C 82.329 194.378,82.528 194.805,82.637 194.696 C 82.947 194.386,81.948 190.800,81.553 190.800 C 81.359 190.800,81.200 190.892,81.200 191.005 M298.160 192.065 C 297.844 192.575,299.361 194.000,300.221 194.000 C 301.103 194.000,301.266 193.275,300.443 193.014 C 300.020 192.879,299.573 192.506,299.450 192.185 C 299.180 191.482,298.556 191.424,298.160 192.065 M302.201 193.999 C 302.052 194.240,302.548 194.400,303.443 194.400 C 305.105 194.400,305.129 194.239,303.525 193.855 C 302.933 193.713,302.337 193.778,302.201 193.999 M310.233 195.993 C 310.448 196.208,311.249 196.500,312.013 196.641 C 313.334 196.885,313.362 196.867,312.600 196.261 C 311.726 195.567,309.561 195.321,310.233 195.993 M322.967 196.347 C 323.337 196.946,326.183 198.400,326.984 198.400 C 328.063 198.400,327.647 197.579,326.278 197.007 C 324.129 196.109,322.636 195.812,322.967 196.347 M298.105 196.890 C 297.530 197.609,296.160 200.410,295.802 201.600 L 295.502 202.600 296.351 201.639 C 296.818 201.110,297.200 200.477,297.200 200.233 C 297.200 199.988,297.571 199.097,298.024 198.251 C 298.841 196.726,298.890 195.912,298.105 196.890 M319.304 197.518 C 319.337 197.955,319.579 198.229,319.843 198.128 C 320.642 197.821,323.349 199.462,324.200 200.769 C 324.640 201.445,325.315 201.998,325.700 201.999 C 326.450 202.000,326.662 201.009,326.000 200.600 C 325.780 200.464,325.600 200.024,325.600 199.623 C 325.600 198.908,322.994 197.602,320.322 196.976 C 319.418 196.765,319.254 196.852,319.304 197.518 M300.317 199.583 C 300.222 200.229,300.270 200.680,300.424 200.585 C 300.869 200.310,301.157 198.820,300.807 198.604 C 300.633 198.497,300.412 198.937,300.317 199.583 M83.426 200.759 C 83.304 200.956,83.923 201.988,84.802 203.051 C 86.376 204.956,86.701 205.600,86.089 205.600 C 85.684 205.600,84.215 203.909,84.207 203.433 C 84.203 203.232,83.930 202.993,83.600 202.903 C 83.122 202.772,83.109 202.816,83.534 203.114 C 83.828 203.321,84.041 203.612,84.009 203.761 C 83.898 204.264,87.099 208.989,88.351 210.171 C 90.354 212.061,90.247 211.046,88.164 208.396 C 86.727 206.567,86.372 205.865,86.761 205.624 C 87.344 205.264,86.706 203.600,85.986 203.600 C 85.774 203.600,85.637 203.465,85.682 203.300 C 85.978 202.222,83.940 199.927,83.426 200.759 M294.448 204.528 C 293.930 205.447,293.081 207.280,292.562 208.600 L 291.617 211.000 292.508 209.823 C 293.364 208.694,295.761 203.227,295.510 202.977 C 295.443 202.910,294.965 203.608,294.448 204.528 M327.206 203.900 C 327.209 204.065,327.380 204.465,327.584 204.788 C 328.045 205.517,328.586 205.061,328.262 204.217 C 328.023 203.594,327.195 203.345,327.206 203.900 M214.223 204.363 C 214.099 204.563,214.167 205.148,214.374 205.663 C 214.725 206.539,214.751 206.516,214.775 205.300 C 214.800 203.986,214.632 203.700,214.223 204.363 M295.722 204.754 C 295.475 205.149,295.413 205.697,295.583 205.973 C 295.788 206.304,295.967 206.088,296.111 205.337 C 296.379 203.944,296.301 203.827,295.722 204.754 M213.542 207.500 C 213.272 208.892,213.405 211.272,213.769 211.574 C 214.092 211.842,214.247 211.277,214.319 209.574 C 214.400 207.657,213.814 206.094,213.542 207.500 M89.991 209.268 C 90.968 210.955,91.898 211.835,92.290 211.443 C 92.439 211.294,91.791 210.414,90.851 209.486 L 89.141 207.800 89.991 209.268 M294.909 211.100 C 293.665 213.880,292.950 215.010,290.159 218.600 L 288.293 221.000 290.537 218.823 C 292.564 216.857,295.975 211.217,295.692 210.300 C 295.642 210.135,295.780 210.000,296.000 210.000 C 296.220 210.000,296.400 209.820,296.400 209.600 C 296.400 208.637,295.692 209.349,294.909 211.100 M213.533 213.008 C 213.012 213.805,212.670 219.200,213.141 219.200 C 213.385 219.200,213.688 218.787,213.815 218.283 C 214.120 217.069,213.875 212.485,213.533 213.008 M103.001 216.799 C 102.665 217.342,103.116 218.000,103.824 218.000 C 104.141 218.000,104.400 218.174,104.400 218.387 C 104.400 218.837,111.118 221.015,111.458 220.676 C 111.583 220.551,111.891 220.620,112.143 220.830 C 114.672 222.940,121.808 225.060,123.294 224.142 C 123.970 223.724,123.096 223.236,120.893 222.801 C 117.598 222.151,111.293 220.068,109.250 218.954 C 108.287 218.429,107.311 218.000,107.081 218.000 C 106.851 218.000,106.379 217.754,106.031 217.454 C 105.171 216.710,103.305 216.306,103.001 216.799 M284.900 218.664 C 283.286 220.278,275.083 223.935,270.600 225.039 C 268.707 225.506,268.676 225.534,270.016 225.566 C 271.697 225.606,278.921 223.422,279.707 222.635 C 280.010 222.333,281.144 221.633,282.228 221.080 C 283.313 220.527,284.729 219.518,285.375 218.837 C 286.808 217.328,286.389 217.175,284.900 218.664 M212.028 225.313 C 212.063 228.901,212.730 230.907,212.772 227.550 C 212.787 226.313,212.907 224.763,213.038 224.108 C 213.214 223.230,213.108 222.850,212.638 222.670 C 212.089 222.459,212.004 222.826,212.028 225.313 M146.100 223.891 C 146.925 223.978,148.275 223.978,149.100 223.891 C 149.925 223.805,149.250 223.734,147.600 223.734 C 145.950 223.734,145.275 223.805,146.100 223.891 M120.200 224.800 C 120.064 225.020,120.334 225.200,120.800 225.200 C 121.266 225.200,121.536 225.020,121.400 224.800 C 121.264 224.580,120.994 224.400,120.800 224.400 C 120.606 224.400,120.336 224.580,120.200 224.800 M146.490 224.878 C 146.585 225.165,147.366 225.458,148.226 225.530 C 149.086 225.601,150.031 225.860,150.325 226.104 C 150.996 226.661,151.756 225.670,151.185 224.982 C 150.628 224.311,146.272 224.214,146.490 224.878 M157.669 224.792 C 158.257 224.969,159.832 225.241,161.169 225.396 C 162.506 225.552,163.600 225.814,163.600 225.981 C 163.600 226.147,164.852 226.489,166.382 226.742 C 169.863 227.317,175.551 229.094,176.296 229.839 C 177.547 231.090,178.800 229.846,178.800 227.350 C 178.800 226.013,178.166 226.471,177.853 228.035 C 177.655 229.027,177.457 229.228,176.901 229.005 C 173.294 227.559,167.032 225.847,162.968 225.195 C 157.854 224.374,155.760 224.215,157.669 224.792 M275.117 224.982 C 273.304 225.501,272.723 226.028,273.169 226.750 C 273.444 227.194,273.774 227.204,274.980 226.806 C 277.431 225.998,277.559 224.283,275.117 224.982 M122.000 225.219 C 122.000 225.429,122.690 225.600,123.533 225.600 C 124.377 225.600,125.187 225.720,125.333 225.867 C 125.586 226.119,126.408 226.145,129.900 226.008 C 131.311 225.953,131.341 225.926,130.407 225.553 C 129.056 225.014,122.000 224.734,122.000 225.219 M266.400 225.933 C 266.400 226.323,267.856 226.277,268.259 225.875 C 268.410 225.724,268.053 225.600,267.467 225.600 C 266.880 225.600,266.400 225.750,266.400 225.933 M252.800 226.900 C 252.800 227.065,253.250 227.200,253.800 227.200 C 254.350 227.200,254.800 227.065,254.800 226.900 C 254.800 226.735,254.350 226.600,253.800 226.600 C 253.250 226.600,252.800 226.735,252.800 226.900 M144.800 227.165 C 144.800 227.404,145.115 227.602,145.500 227.604 C 145.885 227.607,146.920 227.709,147.800 227.831 C 149.966 228.131,148.788 227.387,146.500 227.010 C 145.370 226.824,144.800 226.876,144.800 227.165 M232.746 227.257 C 232.006 227.399,230.289 227.718,228.931 227.967 C 226.279 228.452,222.400 229.908,222.400 230.418 C 222.400 230.876,223.870 230.619,226.766 229.655 C 228.177 229.185,229.783 228.800,230.333 228.800 C 232.598 228.800,236.400 227.907,236.400 227.375 C 236.400 226.808,235.283 226.772,232.746 227.257 M262.725 227.572 C 260.813 227.707,259.130 227.936,258.985 228.082 C 258.661 228.406,259.147 229.276,259.528 229.054 C 259.677 228.967,261.864 228.774,264.388 228.627 C 269.236 228.343,269.433 228.300,269.016 227.627 C 268.740 227.179,268.341 227.176,262.725 227.572 M220.976 228.595 C 220.271 229.135,220.328 229.148,221.600 228.735 C 223.336 228.172,223.557 228.000,222.543 228.000 C 222.109 228.000,221.404 228.268,220.976 228.595 M238.922 228.527 C 238.574 229.089,238.887 229.135,243.601 229.202 C 250.806 229.304,251.600 229.253,251.600 228.691 C 251.600 228.107,239.280 227.947,238.922 228.527 M162.067 229.059 C 162.270 230.121,170.000 231.836,170.000 230.819 C 170.000 230.225,167.288 229.084,166.418 229.311 C 165.989 229.423,165.585 229.375,165.519 229.205 C 165.222 228.430,161.920 228.290,162.067 229.059 M169.673 228.819 C 169.968 229.703,171.960 231.001,172.374 230.579 C 172.922 230.021,171.947 228.902,170.623 228.570 C 169.776 228.357,169.540 228.419,169.673 228.819 M270.200 229.600 C 270.064 229.820,270.313 230.000,270.753 230.000 C 271.193 230.000,271.664 229.820,271.800 229.600 C 271.936 229.380,271.687 229.200,271.247 229.200 C 270.807 229.200,270.336 229.380,270.200 229.600 M257.507 230.290 C 258.226 230.379,259.306 230.377,259.907 230.286 C 260.508 230.195,259.920 230.122,258.600 230.124 C 257.280 230.126,256.788 230.201,257.507 230.290 M267.300 230.276 C 267.685 230.376,268.315 230.376,268.700 230.276 C 269.085 230.175,268.770 230.093,268.000 230.093 C 267.230 230.093,266.915 230.175,267.300 230.276 M219.604 231.396 C 219.332 231.723,218.995 231.924,218.855 231.843 C 218.245 231.487,216.800 232.432,216.800 233.187 C 216.800 234.201,217.780 234.246,218.477 233.263 C 218.765 232.858,219.405 232.312,219.900 232.049 C 220.395 231.787,220.800 231.398,220.800 231.186 C 220.800 230.609,220.164 230.720,219.604 231.396 M177.200 231.586 C 177.200 232.011,178.492 232.800,179.188 232.800 C 179.504 232.800,179.508 232.575,179.200 232.000 C 178.768 231.194,177.200 230.869,177.200 231.586 M183.017 234.100 C 183.136 236.881,183.113 236.800,183.800 236.800 C 184.505 236.800,184.625 234.643,184.010 233.026 C 183.375 231.357,182.921 231.849,183.017 234.100 M215.121 233.424 C 215.030 234.208,215.100 234.938,215.277 235.048 C 215.918 235.444,216.400 234.725,216.400 233.376 C 216.400 231.479,215.344 231.518,215.121 233.424 M220.494 233.822 L 219.000 235.243 221.100 234.215 C 223.146 233.213,223.816 232.400,222.594 232.400 C 222.261 232.400,221.316 233.040,220.494 233.822 M181.022 235.965 C 180.872 236.207,181.019 236.676,181.349 237.006 C 181.764 237.421,182.033 237.470,182.222 237.165 C 182.372 236.922,182.225 236.453,181.895 236.123 C 181.480 235.708,181.211 235.659,181.022 235.965 M216.778 238.300 C 216.557 238.905,216.291 239.640,216.188 239.933 C 216.082 240.234,216.217 240.394,216.498 240.301 C 216.773 240.209,217.104 239.474,217.236 238.667 C 217.519 236.925,217.335 236.777,216.778 238.300 M181.325 238.533 C 181.476 238.936,181.600 239.431,181.600 239.633 C 181.600 239.835,181.780 240.000,182.000 240.000 C 182.638 240.000,182.463 238.949,181.725 238.349 C 181.131 237.866,181.083 237.888,181.325 238.533 M212.667 244.667 C 212.520 244.813,212.400 245.173,212.400 245.467 C 212.400 246.316,213.884 246.085,214.116 245.200 C 214.323 244.408,213.301 244.032,212.667 244.667 M71.297 245.700 C 71.879 246.581,74.400 248.311,74.400 247.830 C 74.400 247.421,71.560 244.800,71.117 244.800 C 70.884 244.800,70.964 245.195,71.297 245.700 M68.800 248.000 C 68.800 248.440,68.846 248.800,68.903 248.800 C 68.959 248.800,69.593 248.969,70.312 249.175 L 71.619 249.550 70.710 248.397 C 69.643 247.045,68.800 246.870,68.800 248.000 M75.567 249.356 C 75.879 249.734,76.509 250.243,76.967 250.487 C 77.725 250.891,77.749 250.869,77.233 250.244 C 76.921 249.866,76.291 249.357,75.833 249.113 C 75.075 248.709,75.051 248.731,75.567 249.356 M182.300 249.645 C 181.469 250.114,181.365 251.200,182.151 251.200 C 182.454 251.200,182.932 250.922,183.214 250.583 C 183.883 249.777,183.239 249.115,182.300 249.645 M183.280 251.280 C 182.677 251.883,182.658 253.065,183.245 253.428 C 183.800 253.771,184.386 252.890,184.394 251.700 C 184.401 250.701,184.007 250.553,183.280 251.280 M172.671 255.821 C 170.290 257.459,168.452 258.800,168.587 258.800 C 169.694 258.800,176.252 254.624,176.825 253.554 C 177.356 252.561,177.608 252.424,172.671 255.821 M181.402 253.602 C 182.218 254.504,182.545 254.442,182.167 253.457 C 182.028 253.096,181.636 252.800,181.295 252.800 C 180.772 252.800,180.788 252.924,181.402 253.602 M80.000 253.758 C 80.000 254.339,86.207 257.547,89.000 258.410 C 89.880 258.682,90.792 259.056,91.027 259.241 C 91.592 259.685,97.675 261.149,100.164 261.440 C 101.245 261.566,102.562 261.833,103.090 262.034 C 104.342 262.510,104.800 262.496,104.800 261.982 C 104.800 261.753,104.575 261.602,104.300 261.647 C 104.025 261.692,103.300 261.522,102.690 261.270 C 102.079 261.018,101.120 260.729,100.559 260.627 C 99.137 260.369,96.834 259.636,95.340 258.966 C 94.646 258.654,93.902 258.400,93.685 258.400 C 92.508 258.400,84.697 255.529,82.951 254.455 C 80.713 253.078,80.000 252.910,80.000 253.758 M79.448 256.477 C 79.733 256.938,82.837 258.496,83.049 258.284 C 83.144 258.190,82.325 257.669,81.231 257.127 C 80.136 256.586,79.334 256.293,79.448 256.477 M174.521 258.547 C 173.378 259.443,172.515 260.248,172.603 260.336 C 172.906 260.640,176.306 258.422,176.563 257.753 C 176.959 256.719,176.750 256.801,174.521 258.547 M172.800 258.333 C 172.800 258.590,172.665 258.759,172.500 258.709 C 172.152 258.603,164.298 262.417,164.000 262.837 C 163.890 262.991,162.495 263.514,160.900 263.998 C 159.097 264.545,158.000 265.090,158.000 265.439 C 158.000 266.463,162.037 265.262,166.259 262.983 C 167.648 262.233,169.013 261.675,169.292 261.744 C 169.572 261.813,169.655 261.790,169.477 261.693 C 169.299 261.597,170.034 260.951,171.108 260.259 C 173.061 259.001,173.473 258.539,173.033 258.100 C 172.905 257.972,172.800 258.077,172.800 258.333 M109.238 262.776 C 108.871 263.004,108.846 263.181,109.157 263.374 C 109.401 263.524,109.808 263.519,110.062 263.362 C 110.330 263.196,110.416 263.251,110.266 263.493 C 110.106 263.752,110.869 264.016,112.291 264.194 C 113.545 264.351,114.848 264.530,115.186 264.593 C 117.972 265.110,120.800 265.227,120.800 264.827 C 120.800 264.266,120.286 264.086,118.000 263.849 C 115.217 263.561,110.338 262.809,110.034 262.621 C 109.884 262.529,109.526 262.598,109.238 262.776 M152.100 264.265 C 151.041 264.692,151.557 265.626,152.700 265.351 C 154.063 265.024,154.144 264.957,153.816 264.427 C 153.541 263.980,152.945 263.924,152.100 264.265 M121.200 264.757 C 121.200 264.954,121.470 265.218,121.800 265.345 C 122.165 265.485,122.400 265.345,122.400 264.987 C 122.400 264.664,122.130 264.400,121.800 264.400 C 121.470 264.400,121.200 264.561,121.200 264.757 M127.467 265.067 C 126.925 265.608,127.227 266.000,128.187 266.000 C 128.901 266.000,129.111 265.833,128.945 265.400 C 128.706 264.778,127.931 264.603,127.467 265.067 M110.220 266.353 C 111.121 267.191,132.322 269.479,131.569 268.657 C 131.442 268.518,129.732 268.293,127.769 268.157 C 123.750 267.879,117.505 267.053,114.800 266.442 C 112.537 265.930,109.706 265.876,110.220 266.353 M134.996 266.407 C 134.858 266.630,134.554 266.695,134.320 266.551 C 134.077 266.400,133.974 266.525,134.080 266.844 C 134.303 267.520,138.800 267.878,138.800 267.220 C 138.800 266.804,138.267 266.645,137.300 266.770 C 137.025 266.806,136.800 266.647,136.800 266.418 C 136.800 265.881,135.326 265.872,134.996 266.407 M127.090 266.643 C 126.942 266.791,126.917 267.066,127.034 267.256 C 127.332 267.736,129.200 267.688,129.200 267.200 C 129.200 266.980,129.035 266.800,128.833 266.800 C 128.631 266.800,128.216 266.704,127.912 266.588 C 127.607 266.471,127.238 266.496,127.090 266.643 M149.480 268.009 C 147.764 268.173,146.234 268.436,146.080 268.594 C 145.723 268.959,151.932 268.401,153.000 267.972 C 153.919 267.603,153.721 267.605,149.480 268.009 M149.200 328.815 C 149.200 329.430,152.783 332.800,153.437 332.800 C 154.439 332.800,154.042 332.112,151.957 330.237 C 149.916 328.402,149.200 328.033,149.200 328.815 M251.000 334.000 C 251.136 334.220,251.697 334.400,252.247 334.400 C 252.812 334.400,253.140 334.226,253.000 334.000 C 252.864 333.780,252.303 333.600,251.753 333.600 C 251.188 333.600,250.860 333.774,251.000 334.000 M236.700 334.703 C 235.905 334.880,235.736 335.615,236.500 335.572 C 236.775 335.556,237.347 335.408,237.771 335.242 C 238.694 334.880,237.839 334.450,236.700 334.703 M231.607 336.296 C 229.401 337.075,228.050 338.200,229.852 337.758 C 230.483 337.603,231.090 337.357,231.200 337.210 C 231.310 337.064,232.120 336.651,233.000 336.292 C 235.047 335.459,233.970 335.462,231.607 336.296 M156.800 336.450 C 156.800 337.234,158.432 340.400,158.836 340.400 C 159.347 340.400,159.308 340.221,158.354 338.191 C 157.483 336.338,156.800 335.573,156.800 336.450 M227.541 340.788 C 226.748 341.442,225.996 342.371,225.870 342.853 C 225.696 343.520,226.136 343.260,227.712 341.765 C 228.851 340.684,229.862 339.755,229.958 339.700 C 230.055 339.645,229.874 339.600,229.558 339.600 C 229.241 339.600,228.334 340.135,227.541 340.788 M158.813 341.100 C 158.820 341.265,159.114 341.760,159.467 342.200 C 160.030 342.903,160.077 342.911,159.854 342.267 C 159.714 341.864,159.600 341.369,159.600 341.167 C 159.600 340.965,159.420 340.800,159.200 340.800 C 158.980 340.800,158.806 340.935,158.813 341.100 M222.879 342.862 C 220.969 344.753,220.561 345.866,222.412 344.134 C 223.527 343.091,224.994 341.200,224.688 341.200 C 224.617 341.200,223.802 341.948,222.879 342.862 M156.828 343.704 C 156.813 343.872,157.146 345.582,157.569 347.504 C 157.991 349.427,158.462 352.037,158.615 353.305 C 158.768 354.573,159.052 355.709,159.247 355.829 C 159.704 356.112,159.702 354.699,159.243 353.519 C 159.046 353.013,158.672 351.192,158.412 349.471 C 158.004 346.779,156.912 342.801,156.828 343.704 M160.439 345.000 C 160.421 345.220,160.676 347.560,161.005 350.200 C 162.025 358.377,162.471 363.658,162.449 367.300 C 162.426 371.057,162.930 371.980,163.346 368.944 C 163.784 365.743,163.626 362.820,162.620 355.600 C 161.795 349.673,160.551 343.627,160.439 345.000 M223.043 346.633 C 222.619 347.736,222.764 348.128,223.400 347.600 C 224.055 347.057,224.215 346.000,223.643 346.000 C 223.446 346.000,223.176 346.285,223.043 346.633 M220.876 350.876 C 219.961 352.358,219.765 353.200,220.337 353.200 C 220.847 353.200,222.136 350.609,221.932 349.995 C 221.821 349.662,221.420 349.997,220.876 350.876 M216.310 356.400 C 216.171 356.950,215.956 358.300,215.832 359.400 L 215.606 361.400 216.215 359.008 C 216.549 357.692,216.765 356.342,216.693 356.008 C 216.615 355.640,216.463 355.795,216.310 356.400 M279.484 360.925 C 279.169 361.747,279.651 363.650,280.133 363.489 C 280.841 363.253,280.967 360.400,280.270 360.400 C 279.948 360.400,279.595 360.636,279.484 360.925 M282.800 362.200 C 282.800 362.567,282.993 362.802,283.230 362.723 C 283.466 362.645,283.660 362.409,283.660 362.200 C 283.660 361.991,283.466 361.755,283.230 361.677 C 282.993 361.598,282.800 361.833,282.800 362.200 M283.745 364.200 C 283.437 365.001,283.891 366.115,284.397 365.802 C 284.927 365.474,284.919 363.600,284.387 363.600 C 284.161 363.600,283.871 363.870,283.745 364.200 M219.097 368.400 C 219.215 370.050,219.376 371.475,219.456 371.567 C 219.722 371.875,219.509 367.813,219.194 366.600 C 219.012 365.897,218.972 366.642,219.097 368.400 M159.200 368.530 C 159.200 368.821,158.570 370.513,157.800 372.290 C 155.551 377.479,156.191 378.049,158.590 372.994 C 159.973 370.080,160.393 368.000,159.600 368.000 C 159.380 368.000,159.200 368.238,159.200 368.530 M159.433 373.806 C 158.376 375.418,157.976 376.738,158.454 377.033 C 159.069 377.414,159.871 376.419,160.332 374.703 C 160.815 372.902,160.338 372.425,159.433 373.806 M162.000 373.733 C 162.000 375.059,162.437 375.326,163.087 374.397 C 163.702 373.519,163.472 372.800,162.576 372.800 C 162.239 372.800,162.000 373.187,162.000 373.733 M283.483 375.898 C 283.368 376.501,283.378 377.165,283.506 377.371 C 283.766 377.792,284.329 376.576,284.372 375.500 C 284.417 374.379,283.714 374.693,283.483 375.898 M217.449 376.730 C 217.272 377.242,217.233 377.767,217.363 377.897 C 217.778 378.311,218.070 377.700,217.918 376.734 L 217.771 375.800 217.449 376.730 M282.839 379.260 C 282.269 380.894,282.280 382.000,282.867 382.000 C 283.123 382.000,283.215 381.882,283.070 381.737 C 282.925 381.592,282.960 381.277,283.147 381.037 C 283.655 380.385,284.033 378.000,283.629 378.000 C 283.436 378.000,283.081 378.567,282.839 379.260 M219.200 384.176 C 219.200 384.739,219.380 385.200,219.600 385.200 C 219.820 385.200,220.000 384.851,220.000 384.424 C 220.000 383.997,219.820 383.536,219.600 383.400 C 219.373 383.260,219.200 383.596,219.200 384.176 M273.423 387.434 C 273.070 387.787,272.530 388.554,272.224 389.138 C 271.232 391.026,268.394 393.423,267.927 392.767 C 267.600 392.306,267.564 392.324,267.735 392.862 C 267.930 393.475,266.913 394.800,266.247 394.800 C 265.707 394.800,263.250 396.957,263.440 397.265 C 264.171 398.447,274.800 389.470,274.800 387.671 C 274.800 386.905,274.076 386.781,273.423 387.434 M263.178 395.342 C 261.350 395.931,256.000 399.118,256.000 399.618 C 256.000 400.575,261.986 397.450,264.580 395.139 C 265.021 394.745,265.037 394.743,263.178 395.342 M391.632 398.506 C 390.110 399.282,390.127 400.001,391.667 399.994 C 393.344 399.986,394.188 399.468,393.871 398.640 C 393.578 397.876,392.941 397.838,391.632 398.506 " stroke="none" fill="#bababa" fill-rule="evenodd"></path><path id="path2" d="M123.988 68.022 C 123.746 68.474,123.607 69.022,123.680 69.239 C 123.752 69.457,124.018 69.087,124.271 68.417 C 124.797 67.025,124.639 66.805,123.988 68.022 M268.249 73.200 C 268.524 74.787,269.189 76.252,269.157 75.200 C 269.147 74.870,268.884 73.970,268.573 73.200 L 268.007 71.800 268.249 73.200 M120.245 75.388 C 119.706 76.210,119.687 76.400,120.144 76.400 C 120.454 76.400,120.811 76.003,120.937 75.517 C 121.266 74.262,121.013 74.215,120.245 75.388 M270.629 95.029 C 270.481 95.615,270.451 96.184,270.561 96.294 C 270.671 96.404,270.881 96.015,271.029 95.429 C 271.176 94.842,271.206 94.273,271.096 94.163 C 270.986 94.053,270.776 94.442,270.629 95.029 M233.814 116.142 C 232.817 116.567,232.740 116.691,233.334 116.919 C 233.788 117.093,233.947 117.037,233.777 116.763 C 233.621 116.510,233.817 116.367,234.256 116.414 C 236.002 116.598,237.065 116.372,236.200 116.000 C 235.162 115.554,235.198 115.552,233.814 116.142 M230.788 118.816 C 230.465 119.020,230.371 119.191,230.580 119.194 C 230.789 119.197,230.744 119.416,230.480 119.680 C 229.482 120.678,230.324 124.375,231.835 125.629 C 232.144 125.886,231.956 125.306,231.416 124.340 C 230.389 122.502,230.318 120.462,231.243 119.348 C 231.834 118.636,231.567 118.323,230.788 118.816 M143.815 120.121 C 142.958 121.428,142.710 123.203,143.188 124.600 C 143.578 125.738,143.589 125.718,143.411 124.200 C 143.195 122.368,143.525 120.707,144.041 121.025 C 144.233 121.144,144.281 120.955,144.146 120.604 C 144.012 120.254,144.059 119.996,144.251 120.031 C 145.009 120.169,145.600 119.980,145.600 119.600 C 145.600 118.852,144.421 119.196,143.815 120.121 M152.399 120.700 C 152.922 121.415,153.413 122.000,153.489 122.000 C 153.793 122.000,152.801 120.500,152.145 119.967 C 151.713 119.616,151.810 119.896,152.399 120.700 M153.200 123.946 C 153.200 124.356,152.822 125.211,152.361 125.846 L 151.522 127.000 152.561 125.878 C 153.459 124.907,153.994 123.200,153.400 123.200 C 153.290 123.200,153.200 123.536,153.200 123.946 M144.522 126.963 C 145.140 127.533,145.935 128.000,146.289 128.000 C 147.055 128.000,147.045 127.991,145.000 126.832 L 143.400 125.925 144.522 126.963 M237.471 126.262 C 237.327 126.406,236.532 126.656,235.704 126.816 C 234.281 127.092,234.266 127.110,235.424 127.154 C 236.096 127.179,236.996 126.936,237.424 126.613 C 237.851 126.290,238.095 126.020,237.967 126.013 C 237.838 126.006,237.615 126.118,237.471 126.262 M149.892 127.749 C 150.023 127.961,149.767 128.032,149.307 127.912 C 148.857 127.794,148.244 127.853,147.944 128.043 C 147.570 128.280,147.783 128.390,148.624 128.394 C 149.296 128.397,150.164 128.169,150.550 127.886 C 151.210 127.403,151.204 127.371,150.456 127.371 C 150.018 127.371,149.764 127.541,149.892 127.749 M236.059 157.079 C 235.355 157.359,232.628 160.005,233.066 159.984 C 233.250 159.975,234.188 159.255,235.151 158.384 C 236.115 157.513,236.835 156.814,236.751 156.832 C 236.668 156.849,236.356 156.960,236.059 157.079 M122.800 165.000 C 122.250 165.314,121.980 165.572,122.200 165.572 C 122.420 165.572,123.050 165.314,123.600 165.000 C 124.150 164.686,124.420 164.428,124.200 164.428 C 123.980 164.428,123.350 164.686,122.800 165.000 M83.800 182.000 C 83.140 182.168,81.430 182.345,80.000 182.394 C 77.617 182.475,77.517 182.512,78.800 182.839 C 80.338 183.232,85.200 182.560,85.200 181.955 C 85.200 181.760,85.155 181.621,85.100 181.647 C 85.045 181.673,84.460 181.832,83.800 182.000 M74.500 182.676 C 74.885 182.776,75.515 182.776,75.900 182.676 C 76.285 182.575,75.970 182.493,75.200 182.493 C 74.430 182.493,74.115 182.575,74.500 182.676 M220.067 183.580 C 219.833 184.251,219.727 184.800,219.831 184.800 C 220.101 184.800,220.856 182.722,220.657 182.524 C 220.567 182.433,220.301 182.908,220.067 183.580 M62.400 183.411 C 62.400 183.605,64.639 184.800,65.004 184.800 C 65.138 184.800,65.147 184.638,65.024 184.439 C 64.789 184.058,62.400 183.122,62.400 183.411 M91.900 183.829 C 90.405 184.640,90.496 184.978,92.000 184.200 C 92.660 183.859,93.200 183.494,93.200 183.390 C 93.200 183.132,93.157 183.147,91.900 183.829 M84.000 186.400 L 82.200 186.680 83.800 186.734 C 84.680 186.763,85.670 186.613,86.000 186.400 C 86.330 186.187,86.420 186.037,86.200 186.066 C 85.980 186.096,84.990 186.246,84.000 186.400 M81.214 187.574 C 80.708 188.520,80.694 188.800,81.153 188.800 C 81.348 188.800,81.593 188.350,81.698 187.800 C 81.927 186.601,81.773 186.529,81.214 187.574 M75.458 188.813 C 75.979 191.459,76.403 192.292,76.163 190.200 C 76.037 189.100,75.766 188.026,75.560 187.813 C 75.326 187.571,75.288 187.947,75.458 188.813 M82.417 192.000 C 82.373 193.044,84.122 197.580,84.882 198.396 C 85.537 199.099,86.944 201.464,88.154 203.897 C 88.582 204.758,89.212 205.125,89.189 204.500 C 89.183 204.335,88.643 203.493,87.989 202.629 C 87.335 201.765,86.800 200.912,86.800 200.735 C 86.800 200.557,86.227 199.481,85.527 198.343 C 84.826 197.204,83.846 195.177,83.348 193.837 C 82.849 192.496,82.430 191.670,82.417 192.000 M217.812 194.517 C 217.641 194.912,217.613 195.347,217.751 195.484 C 218.157 195.890,218.484 195.320,218.297 194.531 C 218.132 193.833,218.110 193.832,217.812 194.517 M303.600 194.743 C 304.370 194.918,305.450 195.203,306.000 195.376 C 306.723 195.603,306.885 195.568,306.584 195.249 C 306.355 195.006,305.275 194.721,304.184 194.616 C 302.573 194.461,302.463 194.484,303.600 194.743 M307.200 195.669 C 307.200 195.851,307.455 196.000,307.767 196.000 C 308.079 196.000,308.619 196.109,308.967 196.243 C 309.315 196.376,309.600 196.307,309.600 196.088 C 309.600 195.870,309.060 195.612,308.400 195.515 C 307.740 195.418,307.200 195.487,307.200 195.669 M217.200 199.800 C 217.200 201.083,217.296 202.037,217.414 201.920 C 217.719 201.614,217.751 198.018,217.451 197.718 C 217.313 197.580,217.200 198.517,217.200 199.800 M79.600 200.400 C 80.070 201.060,80.544 201.600,80.654 201.600 C 80.764 201.600,80.470 201.060,80.000 200.400 C 79.530 199.740,79.056 199.200,78.946 199.200 C 78.836 199.200,79.130 199.740,79.600 200.400 M294.148 204.100 C 293.580 205.199,293.572 205.321,294.095 204.887 C 294.656 204.421,295.338 202.800,294.973 202.800 C 294.889 202.800,294.518 203.385,294.148 204.100 M290.372 211.900 C 289.881 212.725,288.472 214.469,287.240 215.775 L 285.000 218.150 287.400 216.026 C 288.720 214.858,290.208 213.114,290.708 212.151 C 291.818 210.008,291.597 209.843,290.372 211.900 M283.400 219.050 C 282.681 219.662,282.534 219.905,283.033 219.657 C 283.766 219.293,285.141 217.976,284.749 218.014 C 284.667 218.022,284.060 218.488,283.400 219.050 M289.200 220.463 C 287.770 221.798,287.140 222.525,287.800 222.079 C 288.939 221.308,292.365 217.981,291.981 218.017 C 291.882 218.027,290.630 219.127,289.200 220.463 M279.900 220.827 C 279.075 221.263,278.400 221.708,278.400 221.818 C 278.400 221.996,281.559 220.519,281.967 220.151 C 282.427 219.734,281.225 220.128,279.900 220.827 M104.064 220.742 C 104.154 221.040,104.903 221.516,105.728 221.800 C 107.005 222.239,107.159 222.233,106.765 221.758 C 106.510 221.451,106.000 221.200,105.631 221.200 C 105.262 221.200,104.721 220.975,104.430 220.700 C 104.004 220.298,103.932 220.307,104.064 220.742 M131.866 222.700 C 131.766 222.865,133.286 223.046,135.242 223.102 C 137.427 223.165,138.800 223.049,138.800 222.802 C 138.800 222.336,132.145 222.238,131.866 222.700 M143.511 223.093 C 144.451 223.178,145.891 223.177,146.711 223.091 C 147.530 223.005,146.760 222.936,145.000 222.937 C 143.240 222.939,142.570 223.009,143.511 223.093 M150.800 223.600 C 152.236 224.060,152.884 224.060,152.600 223.600 C 152.464 223.380,151.778 223.218,151.076 223.240 C 149.857 223.278,149.845 223.294,150.800 223.600 M284.800 224.000 C 284.250 224.430,283.575 224.786,283.300 224.791 C 283.025 224.796,282.800 224.985,282.800 225.210 C 282.800 225.719,284.858 224.694,285.578 223.826 C 286.270 222.992,286.016 223.049,284.800 224.000 M155.800 223.992 C 156.557 224.325,160.321 224.563,159.967 224.256 C 159.875 224.176,158.720 224.005,157.400 223.876 C 155.876 223.726,155.292 223.769,155.800 223.992 M211.632 227.476 C 211.614 228.838,211.749 230.045,211.931 230.158 C 212.114 230.270,212.190 229.336,212.101 228.081 C 211.872 224.845,211.668 224.583,211.632 227.476 M118.400 226.000 C 118.400 226.220,118.670 226.400,119.000 226.400 C 119.330 226.400,119.600 226.220,119.600 226.000 C 119.600 225.780,119.330 225.600,119.000 225.600 C 118.670 225.600,118.400 225.780,118.400 226.000 M256.348 225.960 C 257.092 226.431,260.000 226.443,260.000 225.975 C 260.000 225.769,259.055 225.603,257.900 225.606 C 256.556 225.610,255.997 225.737,256.348 225.960 M260.800 226.000 C 260.370 226.278,260.797 226.389,262.300 226.394 C 263.455 226.397,264.400 226.220,264.400 226.000 C 264.400 225.488,261.592 225.488,260.800 226.000 M228.800 226.400 C 228.800 226.620,229.171 226.800,229.624 226.800 C 230.077 226.800,230.336 226.620,230.200 226.400 C 230.064 226.180,229.693 226.000,229.376 226.000 C 229.059 226.000,228.800 226.180,228.800 226.400 M123.300 227.076 C 123.685 227.176,124.315 227.176,124.700 227.076 C 125.085 226.975,124.770 226.893,124.000 226.893 C 123.230 226.893,122.915 226.975,123.300 227.076 M154.000 229.200 C 154.000 229.420,154.259 229.600,154.576 229.600 C 154.893 229.600,155.264 229.420,155.400 229.200 C 155.536 228.980,155.277 228.800,154.824 228.800 C 154.371 228.800,154.000 228.980,154.000 229.200 M254.000 230.400 C 253.045 230.706,253.057 230.722,254.276 230.760 C 254.978 230.782,255.664 230.620,255.800 230.400 C 256.084 229.940,255.436 229.940,254.000 230.400 M169.734 232.293 C 170.077 232.848,172.400 233.661,172.400 233.226 C 172.400 233.043,172.085 232.803,171.700 232.692 C 171.315 232.581,170.655 232.350,170.234 232.177 C 169.727 231.970,169.558 232.008,169.734 232.293 M177.089 235.630 C 177.578 236.139,178.078 236.455,178.201 236.332 C 178.324 236.209,177.924 235.792,177.312 235.406 L 176.200 234.704 177.089 235.630 M180.746 238.801 C 181.326 239.897,181.922 240.795,182.072 240.797 C 182.390 240.801,180.489 237.302,180.014 237.009 C 179.837 236.899,180.166 237.706,180.746 238.801 M179.293 248.800 C 179.018 249.240,178.931 249.600,179.100 249.600 C 179.269 249.600,179.632 249.240,179.907 248.800 C 180.182 248.360,180.269 248.000,180.100 248.000 C 179.931 248.000,179.568 248.360,179.293 248.800 M78.768 256.553 C 79.533 257.486,82.773 259.360,83.085 259.049 C 83.221 258.912,83.144 258.800,82.912 258.800 C 82.680 258.800,81.525 258.138,80.345 257.330 C 79.165 256.521,78.456 256.172,78.768 256.553 M177.200 256.878 C 177.200 257.141,176.705 257.905,176.100 258.577 L 175.000 259.797 176.137 258.799 C 177.475 257.623,178.228 256.400,177.614 256.400 C 177.386 256.400,177.200 256.615,177.200 256.878 M170.708 261.684 C 169.008 262.600,167.694 263.428,167.789 263.522 C 167.971 263.705,173.132 260.983,173.780 260.363 C 174.438 259.734,173.887 259.971,170.708 261.684 M102.854 265.348 C 105.669 266.176,107.710 266.502,107.450 266.081 C 107.325 265.878,106.452 265.604,105.511 265.472 C 104.570 265.340,103.170 265.135,102.400 265.017 C 101.334 264.853,101.443 264.933,102.854 265.348 M124.300 269.082 C 124.795 269.178,125.605 269.178,126.100 269.082 C 126.595 268.987,126.190 268.909,125.200 268.909 C 124.210 268.909,123.805 268.987,124.300 269.082 M131.505 269.083 C 132.002 269.179,132.722 269.175,133.105 269.075 C 133.487 268.975,133.080 268.896,132.200 268.901 C 131.320 268.905,131.007 268.987,131.505 269.083 M144.800 268.957 C 144.800 269.346,145.927 269.492,146.436 269.169 C 146.847 268.909,146.701 268.811,145.900 268.806 C 145.295 268.803,144.800 268.871,144.800 268.957 M148.900 269.076 C 149.285 269.176,149.915 269.176,150.300 269.076 C 150.685 268.975,150.370 268.893,149.600 268.893 C 148.830 268.893,148.515 268.975,148.900 269.076 M238.600 334.000 C 238.736 334.220,239.117 334.400,239.447 334.400 C 239.777 334.400,239.936 334.220,239.800 334.000 C 239.664 333.780,239.283 333.600,238.953 333.600 C 238.623 333.600,238.464 333.780,238.600 334.000 M233.600 335.210 C 232.074 335.738,231.829 335.900,232.800 335.738 C 234.208 335.505,236.947 334.472,236.200 334.457 C 235.980 334.453,234.810 334.791,233.600 335.210 M227.000 338.691 C 226.120 339.467,225.760 339.902,226.200 339.658 C 227.303 339.045,228.947 337.612,228.757 337.430 C 228.670 337.347,227.880 337.915,227.000 338.691 M223.178 341.900 L 221.800 343.400 223.300 342.022 C 224.696 340.738,224.984 340.400,224.678 340.400 C 224.612 340.400,223.937 341.075,223.178 341.900 M160.461 343.600 C 160.461 343.930,160.703 344.830,161.000 345.600 C 161.297 346.370,161.539 346.730,161.539 346.400 C 161.539 346.070,161.297 345.170,161.000 344.400 C 160.703 343.630,160.461 343.270,160.461 343.600 M220.150 345.900 C 218.840 347.699,218.544 348.283,219.223 347.731 C 219.801 347.261,221.375 344.800,221.098 344.800 C 221.017 344.800,220.590 345.295,220.150 345.900 M163.740 364.800 C 163.740 366.670,163.809 367.435,163.893 366.500 C 163.977 365.565,163.977 364.035,163.893 363.100 C 163.809 362.165,163.740 362.930,163.740 364.800 M278.428 363.876 C 278.518 364.915,279.144 365.796,279.172 364.924 C 279.187 364.442,279.020 363.936,278.800 363.800 C 278.580 363.664,278.413 363.698,278.428 363.876 M219.714 368.200 C 219.717 369.300,219.795 369.703,219.887 369.095 C 219.979 368.486,219.977 367.586,219.882 367.095 C 219.787 366.603,219.711 367.100,219.714 368.200 M219.693 372.400 C 219.693 373.170,219.775 373.485,219.876 373.100 C 219.976 372.715,219.976 372.085,219.876 371.700 C 219.775 371.315,219.693 371.630,219.693 372.400 M271.167 388.900 C 270.845 389.175,270.225 389.838,269.790 390.372 L 269.000 391.345 269.937 390.709 C 270.782 390.135,272.257 388.400,271.899 388.400 C 271.819 388.400,271.489 388.625,271.167 388.900 " stroke="none" fill="#575757" fill-rule="evenodd"></path><path id="path3" d="M270.909 92.400 C 270.909 93.390,270.987 93.795,271.082 93.300 C 271.178 92.805,271.178 91.995,271.082 91.500 C 270.987 91.005,270.909 91.410,270.909 92.400 M290.378 219.100 L 289.000 220.600 290.500 219.222 C 291.896 217.938,292.184 217.600,291.878 217.600 C 291.812 217.600,291.137 218.275,290.378 219.100 M142.100 223.476 C 142.485 223.576,143.115 223.576,143.500 223.476 C 143.885 223.375,143.570 223.293,142.800 223.293 C 142.030 223.293,141.715 223.375,142.100 223.476 M146.900 223.487 C 147.505 223.578,148.495 223.578,149.100 223.487 C 149.705 223.395,149.210 223.320,148.000 223.320 C 146.790 223.320,146.295 223.395,146.900 223.487 M133.900 268.682 C 134.395 268.778,135.205 268.778,135.700 268.682 C 136.195 268.587,135.790 268.509,134.800 268.509 C 133.810 268.509,133.405 268.587,133.900 268.682 " stroke="none" fill="#747474" fill-rule="evenodd"></path><path id="path4" d="M265.815 67.399 C 266.073 68.638,266.295 69.055,266.543 68.767 C 266.622 68.675,266.434 68.060,266.126 67.400 L 265.566 66.200 265.815 67.399 M270.920 88.800 C 270.920 90.010,270.995 90.505,271.087 89.900 C 271.178 89.295,271.178 88.305,271.087 87.700 C 270.995 87.095,270.920 87.590,270.920 88.800 M239.827 120.130 C 239.310 120.509,239.221 120.766,239.539 120.963 C 240.117 121.320,240.135 122.976,239.573 124.126 C 239.208 124.873,239.265 124.855,239.966 124.000 C 240.417 123.450,240.713 122.797,240.624 122.549 C 240.535 122.301,240.634 121.926,240.843 121.717 C 241.604 120.956,240.678 119.509,239.827 120.130 M148.000 126.904 C 148.000 127.255,147.685 127.624,147.300 127.724 C 146.644 127.896,146.645 127.910,147.313 127.954 C 148.036 128.001,148.706 126.973,148.249 126.516 C 148.112 126.379,148.000 126.553,148.000 126.904 M264.800 226.000 C 264.800 226.220,265.160 226.400,265.600 226.400 C 266.040 226.400,266.400 226.220,266.400 226.000 C 266.400 225.780,266.040 225.600,265.600 225.600 C 265.160 225.600,264.800 225.780,264.800 226.000 M226.305 227.083 C 226.802 227.179,227.522 227.175,227.905 227.075 C 228.287 226.975,227.880 226.896,227.000 226.901 C 226.120 226.905,225.807 226.987,226.305 227.083 M178.509 250.697 C 178.119 251.301,177.350 252.217,176.800 252.734 L 175.800 253.673 177.100 252.809 C 177.815 252.334,178.400 251.778,178.400 251.573 C 178.400 251.368,178.760 250.840,179.200 250.400 C 179.640 249.960,179.824 249.600,179.609 249.600 C 179.394 249.600,178.899 250.094,178.509 250.697 M80.706 257.665 C 81.404 258.361,84.082 259.247,83.908 258.724 C 83.813 258.438,83.479 258.185,83.167 258.163 C 81.812 258.065,81.564 257.982,81.747 257.686 C 81.854 257.513,81.597 257.371,81.176 257.371 C 80.756 257.371,80.544 257.503,80.706 257.665 M123.300 268.676 C 123.685 268.776,124.315 268.776,124.700 268.676 C 125.085 268.575,124.770 268.493,124.000 268.493 C 123.230 268.493,122.915 268.575,123.300 268.676 M127.700 269.076 C 128.085 269.176,128.715 269.176,129.100 269.076 C 129.485 268.975,129.170 268.893,128.400 268.893 C 127.630 268.893,127.315 268.975,127.700 269.076 M223.771 341.703 L 222.600 342.997 223.800 341.999 C 224.460 341.449,225.075 340.955,225.167 340.900 C 225.258 340.845,225.245 340.712,225.138 340.604 C 225.030 340.496,224.415 340.991,223.771 341.703 M215.649 357.800 C 215.616 358.240,215.496 359.050,215.383 359.600 L 215.177 360.600 215.606 359.619 C 215.842 359.079,215.961 358.269,215.872 357.819 C 215.713 357.021,215.707 357.021,215.649 357.800 " stroke="none" fill="#7c7c7c" fill-rule="evenodd"></path></g></svg>